<?xml version="1.0" encoding="utf-8"?>
<!-- Generator: Adobe Illustrator 27.5.0, SVG Export Plug-In . SVG Version: 6.00 Build 0)  -->
<svg version="1.1" xmlns="http://www.w3.org/2000/svg" xmlns:xlink="http://www.w3.org/1999/xlink" x="0px" y="0px"
	 viewBox="0 0 500 500" style="enable-background:new 0 0 500 500;" xml:space="preserve">
<g id="Background_Simple">
	<g>
		<path style="fill:#92E3A9;" d="M453.847,326.347c-20.142,40.614-55.863,82.72-99.325,90.812
			c-65.67,12.234-80.585,66.854-192.613,46.705c-17.467-3.14-33.35-8.009-47.697-14.319c-7.713-3.391-14.982-7.21-21.804-11.406
			c-61.958-38-87.748-106.931-81.643-174.654c8.016-89.073,69.992-123.794,109.91-143.643
			c39.918-19.848,96.805-109.761,207.1-90.903c16.814,2.883,33.339,7.658,49.031,14.687c35.824,16.028,70.482,45.55,87.754,84.267
			c1.296,2.909,2.508,5.87,3.647,8.874C490.395,195.538,481.31,270.978,453.847,326.347z"/>
		<path style="opacity:0.8;fill:#FFFFFF;" d="M453.847,326.347c-20.142,40.614-55.863,82.72-99.325,90.812
			c-65.67,12.234-80.585,66.854-192.613,46.705c-17.467-3.14-33.35-8.009-47.697-14.319c-7.713-3.391-14.982-7.21-21.804-11.406
			c-61.958-38-87.748-106.931-81.643-174.654c8.016-89.073,69.992-123.794,109.91-143.643
			c39.918-19.848,96.805-109.761,207.1-90.903c16.814,2.883,33.339,7.658,49.031,14.687c35.824,16.028,70.482,45.55,87.754,84.267
			c1.296,2.909,2.508,5.87,3.647,8.874C490.395,195.538,481.31,270.978,453.847,326.347z"/>
	</g>
</g>
<g id="Mountains">
	<g>
		<polyline style="fill:none;stroke:#263238;stroke-miterlimit:10;" points="384.258,225.083 192.962,107.509 176.438,124.669 
			166.905,134.202 155.465,153.268 107.8,221.905 82.379,223.176 73.482,232.074 74.117,243.514 12.47,326.768 		"/>
		<polyline style="fill:none;stroke:#263238;stroke-miterlimit:10;" points="313.078,181.231 388.071,141.828 474.503,179.96 		"/>
		<polyline style="fill:none;stroke:#263238;stroke-miterlimit:10;" points="166.905,134.202 184.129,127.593 188.503,132.761 
			194.863,126.003 210.765,133.557 212.753,124.413 219.909,124.413 		"/>
		<polyline style="fill:none;stroke:#263238;stroke-miterlimit:10;" points="354.68,159.795 375.75,150.651 378.533,158.602 
			386.484,153.434 403.579,176.89 410.735,161.783 419.878,163.771 421.469,157.012 		"/>
		<polyline style="fill:none;stroke:#263238;stroke-miterlimit:10;" points="82.379,223.176 79.925,234.493 97.046,238.488 
			94.193,250.473 112.456,235.064 118.163,246.479 129.007,225.362 107.8,221.905 		"/>
	</g>
</g>
<g id="Clouds">
	<g>
		<path style="fill:none;stroke:#263238;stroke-miterlimit:10;" d="M399.185,90.473c0,0,2.784-17.263-15.035-21.161
			c-17.82-3.898-25.616,14.479-30.628,18.377c-5.012,3.898-7.796-8.91-18.377-5.569c-10.581,3.341-13.365,11.137-16.149,11.694
			s-3.341-7.796-13.922-4.455c-10.58,3.341-16.149,9.467-16.149,9.467h139.775c0,0-3.898-7.796-11.137-11.137
			C410.322,84.348,404.197,96.599,399.185,90.473z"/>
		<path style="fill:none;stroke:#263238;stroke-miterlimit:10;" d="M142.318,66.742c0,0,1.599-9.916-8.636-12.155
			c-10.236-2.239-14.714,8.317-17.593,10.556c-2.879,2.239-4.478-5.118-10.556-3.199c-6.078,1.919-7.677,6.397-9.276,6.717
			c-1.599,0.32-1.919-4.478-7.997-2.559c-6.077,1.919-9.276,5.438-9.276,5.438h80.288c0,0-2.239-4.478-6.398-6.398
			C148.716,63.223,145.197,70.26,142.318,66.742z"/>
		<path style="fill:none;stroke:#263238;stroke-miterlimit:10;" d="M335.707,138.605c0,0,1.103-6.837-5.955-8.381
			c-7.057-1.544-10.145,5.734-12.13,7.278c-1.985,1.544-3.088-3.529-7.278-2.205c-4.19,1.323-5.293,4.411-6.396,4.631
			c-1.103,0.221-1.323-3.088-5.514-1.764c-4.19,1.323-6.396,3.749-6.396,3.749h55.357c0,0-1.544-3.088-4.411-4.411
			C340.118,136.18,337.692,141.031,335.707,138.605z"/>
	</g>
</g>
<g id="Trees_1_">
	<g>
		<path style="fill:#92E3A9;" d="M100.8,271.359c0,24.935-14.751,45.149-32.947,45.149s-32.947-20.214-32.947-45.149
			s14.751-110.636,32.947-110.636S100.8,246.424,100.8,271.359z"/>
		<path style="opacity:0.5;fill:#FFFFFF;" d="M100.8,271.359c0,24.935-14.751,45.149-32.947,45.149s-32.947-20.214-32.947-45.149
			s14.751-110.636,32.947-110.636S100.8,246.424,100.8,271.359z"/>
		<polygon style="fill:#999999;" points="50.056,273.6 60.565,277.266 65.77,284.342 64.86,306.007 58.803,301.897 64.672,310.491 
			63.753,383.498 69.451,381.944 68.876,294.025 86.328,284.404 76.351,288.094 78.353,282.089 73.583,289.118 68.822,290.879 
			68.482,271.159 85.813,248.133 76.525,257.421 78.096,250.963 73.652,260.293 68.385,265.561 67.854,234.751 65.966,279.686 
			49.542,262.281 58.563,274.545 		"/>
		<g>
			<path style="fill:#FFFFFF;" d="M85.979,234.849c0,0,0.305,3.027-1.35,5.249c-1.655,2.222-4.642,2.798-4.642,2.798
				s-0.305-3.027,1.35-5.249C82.992,235.425,85.979,234.849,85.979,234.849z"/>
			<path style="fill:#FFFFFF;" d="M95.909,248.801c0,0,0.305,3.027-1.35,5.249c-1.655,2.222-4.642,2.798-4.642,2.798
				s-0.305-3.027,1.35-5.249C92.922,249.376,95.909,248.801,95.909,248.801z"/>
			<path style="fill:#FFFFFF;" d="M95.905,275.965c0,0-0.732,2.953-3.038,4.488c-2.306,1.535-5.313,1.072-5.313,1.072
				s0.732-2.953,3.038-4.488C92.898,275.501,95.905,275.965,95.905,275.965z"/>
			<path style="fill:#FFFFFF;" d="M41.369,275.965c0,0,0.732,2.953,3.038,4.488c2.306,1.535,5.313,1.072,5.313,1.072
				s-0.732-2.953-3.038-4.488C44.376,275.501,41.369,275.965,41.369,275.965z"/>
			<path style="fill:#FFFFFF;" d="M84.436,264.689c0,0,0.305,3.027-1.35,5.249c-1.654,2.222-4.642,2.798-4.642,2.798
				s-0.305-3.027,1.35-5.249C81.448,265.265,84.436,264.689,84.436,264.689z"/>
			<path style="fill:#FFFFFF;" d="M81.863,219.671c0,0,0.305,3.027-1.35,5.249c-1.655,2.222-4.642,2.798-4.642,2.798
				s-0.305-3.027,1.35-5.249C78.876,220.247,81.863,219.671,81.863,219.671z"/>
			<path style="fill:#FFFFFF;" d="M75.947,231.247c0,0,0.305,3.027-1.35,5.249c-1.655,2.222-4.642,2.798-4.642,2.798
				s-0.305-3.027,1.35-5.249C72.96,231.823,75.947,231.247,75.947,231.247z"/>
			<path style="fill:#FFFFFF;" d="M89.993,222.819c0,0,0.305,3.027-1.35,5.249c-1.655,2.222-4.642,2.798-4.642,2.798
				s-0.305-3.027,1.35-5.249C87.005,223.395,89.993,222.819,89.993,222.819z"/>
			<path style="fill:#FFFFFF;" d="M44.35,222.819c0,0-0.305,3.027,1.35,5.249c1.654,2.222,4.642,2.798,4.642,2.798
				s0.305-3.027-1.35-5.249C47.337,223.395,44.35,222.819,44.35,222.819z"/>
			<path style="fill:#FFFFFF;" d="M83.149,205.523c0,0,0.305,3.027-1.35,5.249c-1.654,2.222-4.642,2.798-4.642,2.798
				s-0.305-3.027,1.35-5.249C80.162,206.099,83.149,205.523,83.149,205.523z"/>
			<path style="fill:#FFFFFF;" d="M80.242,190.494c0,0,1.055,2.853,0.012,5.42c-1.043,2.566-3.79,3.874-3.79,3.874
				s-1.055-2.853-0.012-5.42C77.495,191.802,80.242,190.494,80.242,190.494z"/>
			<path style="fill:#FFFFFF;" d="M59.407,186.567c0,0,2.695,1.411,3.639,4.016c0.945,2.604-0.219,5.415-0.219,5.415
				s-2.695-1.412-3.639-4.016C58.244,189.378,59.407,186.567,59.407,186.567z"/>
			<path style="fill:#FFFFFF;" d="M69.123,204.538c0,0,1.92,2.36,1.761,5.126c-0.159,2.766-2.337,4.89-2.337,4.89
				s-1.92-2.36-1.761-5.126C66.945,206.663,69.123,204.538,69.123,204.538z"/>
			<path style="fill:#FFFFFF;" d="M68.609,177.785c0,0,1.92,2.36,1.761,5.126c-0.159,2.766-2.337,4.89-2.337,4.89
				s-1.92-2.36-1.761-5.126C66.431,179.91,68.609,177.785,68.609,177.785z"/>
			<path style="fill:#FFFFFF;" d="M46.803,234.849c0,0-0.305,3.027,1.35,5.249c1.654,2.222,4.642,2.798,4.642,2.798
				s0.305-3.027-1.35-5.249C49.79,235.425,46.803,234.849,46.803,234.849z"/>
			<path style="fill:#FFFFFF;" d="M41.144,251.312c0,0-0.305,3.027,1.35,5.249c1.655,2.222,4.642,2.798,4.642,2.798
				s0.305-3.027-1.35-5.249C44.131,251.888,41.144,251.312,41.144,251.312z"/>
			<path style="fill:#FFFFFF;" d="M56.167,257.29c0,0-0.305,3.027,1.35,5.249c1.654,2.222,4.642,2.798,4.642,2.798
				s0.305-3.027-1.35-5.249C59.154,257.865,56.167,257.29,56.167,257.29z"/>
			<path style="fill:#FFFFFF;" d="M60.274,234.477c0,0-1.159,2.813-0.21,5.416c0.949,2.603,3.646,4.01,3.646,4.01
				s1.159-2.813,0.21-5.416C62.971,235.884,60.274,234.477,60.274,234.477z"/>
			<path style="fill:#FFFFFF;" d="M49.636,295.18c0,0,3.042,0.056,5.121-1.776c2.079-1.831,2.408-4.855,2.408-4.855
				s-3.042-0.056-5.121,1.776C49.965,292.155,49.636,295.18,49.636,295.18z"/>
			<path style="fill:#FFFFFF;" d="M78.824,291.852c0,0,0.826,2.928,3.18,4.389c2.354,1.461,5.344,0.901,5.344,0.901
				s-0.826-2.928-3.18-4.389C81.814,291.293,78.824,291.852,78.824,291.852z"/>
			<path style="fill:#FFFFFF;" d="M53.029,219.671c0,0-0.305,3.027,1.35,5.249c1.654,2.222,4.642,2.798,4.642,2.798
				s0.305-3.027-1.35-5.249C56.017,220.247,53.029,219.671,53.029,219.671z"/>
			<path style="fill:#FFFFFF;" d="M52.977,206.295c0,0-0.305,3.027,1.35,5.249c1.654,2.222,4.642,2.798,4.642,2.798
				s0.305-3.027-1.35-5.249C55.964,206.871,52.977,206.295,52.977,206.295z"/>
		</g>
	</g>
	<g>
		<path style="fill:#92E3A9;" d="M139.078,308.133c0,16.335-9.663,29.577-21.583,29.577s-21.583-13.242-21.583-29.577
			c0-16.335,9.663-72.478,21.583-72.478S139.078,291.797,139.078,308.133z"/>
		<path style="opacity:0.5;fill:#FFFFFF;" d="M139.078,308.133c0,16.335-9.663,29.577-21.583,29.577s-21.583-13.242-21.583-29.577
			c0-16.335,9.663-72.478,21.583-72.478S139.078,291.797,139.078,308.133z"/>
		<polygon style="fill:#999999;" points="105.836,309.601 112.72,312.002 116.13,316.638 115.534,330.831 111.565,328.138 
			115.41,333.768 114.728,354.176 118.787,353.326 118.164,322.981 129.597,316.679 123.062,319.096 124.373,315.162 
			121.248,319.766 118.129,320.92 117.906,308.002 129.26,292.917 123.175,299.002 124.204,294.771 121.293,300.884 
			117.843,304.334 117.495,284.151 116.258,313.588 105.499,302.186 111.409,310.22 		"/>
		<g>
			<path style="fill:#FFFFFF;" d="M129.369,284.215c0,0,0.2,1.983-0.884,3.439c-1.084,1.456-3.041,1.833-3.041,1.833
				s-0.2-1.983,0.884-3.439C127.412,284.592,129.369,284.215,129.369,284.215z"/>
			<path style="fill:#FFFFFF;" d="M135.874,293.355c0,0,0.2,1.983-0.884,3.439c-1.084,1.456-3.041,1.833-3.041,1.833
				s-0.2-1.983,0.884-3.439C133.917,293.732,135.874,293.355,135.874,293.355z"/>
			<path style="fill:#FFFFFF;" d="M135.871,311.15c0,0-0.479,1.934-1.99,2.94c-1.511,1.006-3.48,0.702-3.48,0.702
				s0.48-1.935,1.99-2.94C133.901,310.846,135.871,311.15,135.871,311.15z"/>
			<path style="fill:#FFFFFF;" d="M100.145,311.15c0,0,0.48,1.934,1.99,2.94c1.511,1.006,3.48,0.702,3.48,0.702
				s-0.479-1.935-1.99-2.94C102.115,310.846,100.145,311.15,100.145,311.15z"/>
			<path style="fill:#FFFFFF;" d="M128.358,303.763c0,0,0.2,1.983-0.884,3.439c-1.084,1.456-3.041,1.833-3.041,1.833
				s-0.2-1.983,0.884-3.439C126.401,304.14,128.358,303.763,128.358,303.763z"/>
			<path style="fill:#FFFFFF;" d="M126.672,274.272c0,0,0.2,1.983-0.884,3.439c-1.084,1.456-3.041,1.833-3.041,1.833
				s-0.2-1.983,0.884-3.439C124.715,274.649,126.672,274.272,126.672,274.272z"/>
			<path style="fill:#FFFFFF;" d="M122.796,281.855c0,0,0.2,1.983-0.884,3.439c-1.084,1.456-3.041,1.833-3.041,1.833
				s-0.2-1.983,0.884-3.439C120.84,282.233,122.796,281.855,122.796,281.855z"/>
			<path style="fill:#FFFFFF;" d="M131.998,276.334c0,0,0.2,1.983-0.884,3.439c-1.084,1.456-3.041,1.833-3.041,1.833
				s-0.2-1.983,0.884-3.439C130.041,276.711,131.998,276.334,131.998,276.334z"/>
			<path style="fill:#FFFFFF;" d="M102.097,276.334c0,0-0.2,1.983,0.884,3.439c1.084,1.456,3.041,1.833,3.041,1.833
				s0.2-1.983-0.884-3.439C104.054,276.711,102.097,276.334,102.097,276.334z"/>
			<path style="fill:#FFFFFF;" d="M127.515,265.004c0,0,0.2,1.983-0.884,3.439c-1.084,1.456-3.041,1.833-3.041,1.833
				s-0.2-1.983,0.884-3.439C125.558,265.381,127.515,265.004,127.515,265.004z"/>
			<path style="fill:#FFFFFF;" d="M125.61,255.158c0,0,0.691,1.869,0.008,3.55c-0.683,1.681-2.483,2.538-2.483,2.538
				s-0.691-1.869-0.008-3.551C123.811,256.015,125.61,255.158,125.61,255.158z"/>
			<path style="fill:#FFFFFF;" d="M111.962,252.585c0,0,1.765,0.925,2.384,2.631c0.619,1.706-0.143,3.548-0.143,3.548
				s-1.766-0.925-2.384-2.631C111.199,254.427,111.962,252.585,111.962,252.585z"/>
			<path style="fill:#FFFFFF;" d="M118.326,264.358c0,0,1.258,1.546,1.154,3.358c-0.104,1.812-1.531,3.204-1.531,3.204
				s-1.258-1.546-1.153-3.358C116.9,265.75,118.326,264.358,118.326,264.358z"/>
			<path style="fill:#FFFFFF;" d="M117.989,246.833c0,0,1.258,1.546,1.153,3.358c-0.104,1.812-1.531,3.203-1.531,3.203
				s-1.258-1.546-1.153-3.358C116.563,248.224,117.989,246.833,117.989,246.833z"/>
			<path style="fill:#FFFFFF;" d="M103.705,284.215c0,0-0.2,1.983,0.884,3.439c1.084,1.456,3.041,1.833,3.041,1.833
				s0.2-1.983-0.884-3.439S103.705,284.215,103.705,284.215z"/>
			<path style="fill:#FFFFFF;" d="M99.997,295c0,0-0.2,1.983,0.884,3.439c1.084,1.456,3.041,1.833,3.041,1.833
				s0.2-1.983-0.884-3.439C101.954,295.377,99.997,295,99.997,295z"/>
			<path style="fill:#FFFFFF;" d="M109.839,298.916c0,0-0.2,1.983,0.884,3.439c1.084,1.456,3.041,1.833,3.041,1.833
				s0.2-1.983-0.884-3.439C111.795,299.293,109.839,298.916,109.839,298.916z"/>
			<path style="fill:#FFFFFF;" d="M112.529,283.971c0,0-0.759,1.843-0.137,3.548c0.622,1.705,2.388,2.627,2.388,2.627
				s0.759-1.843,0.138-3.548C114.296,284.893,112.529,283.971,112.529,283.971z"/>
			<path style="fill:#FFFFFF;" d="M105.56,323.738c0,0,1.993,0.036,3.355-1.163c1.362-1.2,1.577-3.181,1.577-3.181
				s-1.993-0.036-3.354,1.163C105.776,321.756,105.56,323.738,105.56,323.738z"/>
			<path style="fill:#FFFFFF;" d="M124.681,321.558c0,0,0.541,1.918,2.083,2.875c1.542,0.957,3.501,0.59,3.501,0.59
				s-0.541-1.918-2.083-2.875C126.64,321.191,124.681,321.558,124.681,321.558z"/>
			<path style="fill:#FFFFFF;" d="M107.783,274.272c0,0-0.2,1.983,0.884,3.439c1.084,1.456,3.041,1.833,3.041,1.833
				s0.2-1.983-0.884-3.439C109.74,274.649,107.783,274.272,107.783,274.272z"/>
			<path style="fill:#FFFFFF;" d="M107.749,265.509c0,0-0.2,1.983,0.884,3.439c1.084,1.456,3.041,1.833,3.041,1.833
				s0.2-1.983-0.884-3.439C109.706,265.886,107.749,265.509,107.749,265.509z"/>
		</g>
	</g>
	<g>
		<path style="fill:#92E3A9;" d="M460.439,145.999c0,16.335-9.663,29.577-21.583,29.577c-11.92,0-21.583-13.242-21.583-29.577
			s9.663-72.478,21.583-72.478C450.776,73.522,460.439,129.664,460.439,145.999z"/>
		<path style="opacity:0.5;fill:#FFFFFF;" d="M460.439,145.999c0,16.335-9.663,29.577-21.583,29.577
			c-11.92,0-21.583-13.242-21.583-29.577s9.663-72.478,21.583-72.478C450.776,73.522,460.439,129.664,460.439,145.999z"/>
		<polygon style="fill:#999999;" points="427.196,147.468 434.08,149.869 437.49,154.505 436.894,168.698 432.926,166.005 
			436.771,171.635 436.042,217.748 440.186,215.417 439.525,160.848 450.958,154.546 444.422,156.963 445.733,153.029 
			442.609,157.633 439.489,158.787 439.267,145.868 450.621,130.784 444.536,136.869 445.565,132.638 442.654,138.751 
			439.203,142.201 438.855,122.018 437.619,151.454 426.859,140.053 432.769,148.087 		"/>
		<g>
			<path style="fill:#FFFFFF;" d="M450.729,122.082c0,0,0.2,1.983-0.884,3.439c-1.084,1.456-3.041,1.833-3.041,1.833
				s-0.2-1.983,0.884-3.439C448.772,122.459,450.729,122.082,450.729,122.082z"/>
			<path style="fill:#FFFFFF;" d="M457.235,131.221c0,0,0.2,1.983-0.884,3.439c-1.084,1.456-3.041,1.833-3.041,1.833
				s-0.2-1.983,0.884-3.439C455.278,131.599,457.235,131.221,457.235,131.221z"/>
			<path style="fill:#FFFFFF;" d="M457.232,149.017c0,0-0.479,1.934-1.99,2.94c-1.511,1.006-3.48,0.702-3.48,0.702
				s0.479-1.934,1.99-2.94C455.262,148.713,457.232,149.017,457.232,149.017z"/>
			<path style="fill:#FFFFFF;" d="M421.505,149.017c0,0,0.48,1.934,1.99,2.94c1.511,1.006,3.48,0.702,3.48,0.702
				s-0.48-1.934-1.99-2.94C423.475,148.713,421.505,149.017,421.505,149.017z"/>
			<path style="fill:#FFFFFF;" d="M449.718,141.63c0,0,0.2,1.983-0.884,3.439c-1.084,1.456-3.041,1.833-3.041,1.833
				s-0.2-1.983,0.884-3.439C447.761,142.007,449.718,141.63,449.718,141.63z"/>
			<path style="fill:#FFFFFF;" d="M448.033,112.139c0,0,0.2,1.983-0.884,3.439c-1.084,1.456-3.041,1.833-3.041,1.833
				s-0.2-1.983,0.884-3.439C446.076,112.516,448.033,112.139,448.033,112.139z"/>
			<path style="fill:#FFFFFF;" d="M444.157,119.722c0,0,0.2,1.983-0.884,3.439c-1.084,1.456-3.041,1.833-3.041,1.833
				s-0.2-1.983,0.884-3.439C442.2,120.1,444.157,119.722,444.157,119.722z"/>
			<path style="fill:#FFFFFF;" d="M453.358,114.201c0,0,0.2,1.983-0.884,3.439c-1.084,1.456-3.041,1.833-3.041,1.833
				s-0.2-1.983,0.884-3.439C451.402,114.578,453.358,114.201,453.358,114.201z"/>
			<path style="fill:#FFFFFF;" d="M423.458,114.201c0,0-0.2,1.983,0.884,3.439c1.084,1.456,3.041,1.833,3.041,1.833
				s0.2-1.983-0.884-3.439C425.415,114.578,423.458,114.201,423.458,114.201z"/>
			<path style="fill:#FFFFFF;" d="M448.876,102.87c0,0,0.2,1.983-0.884,3.439c-1.084,1.456-3.041,1.833-3.041,1.833
				s-0.2-1.983,0.884-3.439C446.919,103.248,448.876,102.87,448.876,102.87z"/>
			<path style="fill:#FFFFFF;" d="M446.971,93.025c0,0,0.691,1.869,0.008,3.551c-0.683,1.681-2.483,2.538-2.483,2.538
				s-0.691-1.869-0.008-3.55C445.171,93.882,446.971,93.025,446.971,93.025z"/>
			<path style="fill:#FFFFFF;" d="M433.322,90.452c0,0,1.765,0.925,2.384,2.631c0.619,1.706-0.143,3.548-0.143,3.548
				s-1.765-0.925-2.384-2.631C432.56,92.293,433.322,90.452,433.322,90.452z"/>
			<path style="fill:#FFFFFF;" d="M439.687,102.225c0,0,1.258,1.546,1.154,3.358c-0.104,1.812-1.531,3.204-1.531,3.204
				s-1.258-1.546-1.154-3.358C438.26,103.617,439.687,102.225,439.687,102.225z"/>
			<path style="fill:#FFFFFF;" d="M439.35,84.699c0,0,1.258,1.546,1.153,3.358c-0.104,1.812-1.531,3.203-1.531,3.203
				s-1.258-1.546-1.153-3.358C437.923,86.091,439.35,84.699,439.35,84.699z"/>
			<path style="fill:#FFFFFF;" d="M425.065,122.082c0,0-0.2,1.983,0.884,3.439c1.084,1.456,3.041,1.833,3.041,1.833
				s0.2-1.983-0.884-3.439C427.022,122.459,425.065,122.082,425.065,122.082z"/>
			<path style="fill:#FFFFFF;" d="M421.358,132.867c0,0-0.2,1.983,0.884,3.439c1.084,1.456,3.041,1.833,3.041,1.833
				s0.2-1.983-0.884-3.439C423.315,133.244,421.358,132.867,421.358,132.867z"/>
			<path style="fill:#FFFFFF;" d="M431.199,136.783c0,0-0.2,1.983,0.884,3.439c1.084,1.456,3.041,1.833,3.041,1.833
				s0.2-1.983-0.884-3.439C433.156,137.16,431.199,136.783,431.199,136.783z"/>
			<path style="fill:#FFFFFF;" d="M433.89,121.838c0,0-0.759,1.843-0.137,3.548c0.622,1.705,2.389,2.627,2.389,2.627
				s0.759-1.843,0.137-3.548C435.657,122.76,433.89,121.838,433.89,121.838z"/>
			<path style="fill:#FFFFFF;" d="M426.921,161.605c0,0,1.993,0.036,3.355-1.163c1.362-1.2,1.577-3.181,1.577-3.181
				s-1.993-0.036-3.354,1.163C427.137,159.623,426.921,161.605,426.921,161.605z"/>
			<path style="fill:#FFFFFF;" d="M446.042,159.425c0,0,0.541,1.918,2.083,2.875c1.542,0.957,3.501,0.59,3.501,0.59
				s-0.541-1.918-2.083-2.875C448.001,159.058,446.042,159.425,446.042,159.425z"/>
			<path style="fill:#FFFFFF;" d="M429.144,112.139c0,0-0.2,1.983,0.884,3.439c1.084,1.456,3.041,1.833,3.041,1.833
				s0.2-1.983-0.884-3.439C431.101,112.516,429.144,112.139,429.144,112.139z"/>
			<path style="fill:#FFFFFF;" d="M429.11,103.376c0,0-0.2,1.983,0.884,3.438c1.084,1.456,3.041,1.833,3.041,1.833
				s0.2-1.983-0.884-3.439C431.067,103.753,429.11,103.376,429.11,103.376z"/>
		</g>
	</g>
	<g>
		<path style="fill:#92E3A9;" d="M394.674,227.487c0,14.877-8.801,26.937-19.657,26.937c-10.856,0-19.657-12.06-19.657-26.937
			c0-14.877,8.801-66.008,19.657-66.008C385.873,161.479,394.674,212.61,394.674,227.487z"/>
		<path style="opacity:0.5;fill:#FFFFFF;" d="M394.674,227.487c0,14.877-8.801,26.937-19.657,26.937
			c-10.856,0-19.657-12.06-19.657-26.937c0-14.877,8.801-66.008,19.657-66.008C385.873,161.479,394.674,212.61,394.674,227.487z"/>
		<polygon style="fill:#999999;" points="364.398,228.824 370.668,231.011 373.774,235.233 373.231,248.159 369.617,245.707 
			373.118,250.834 372.591,286.379 375.828,285.213 375.627,241.01 386.039,235.27 380.087,237.472 381.281,233.889 
			378.435,238.082 375.594,239.133 375.391,227.368 385.732,213.63 380.19,219.171 381.128,215.318 378.477,220.885 
			375.334,224.028 375.017,205.646 373.891,232.455 364.091,222.071 369.474,229.388 		"/>
		<g>
			<path style="fill:#FFFFFF;" d="M385.831,205.704c0,0,0.182,1.806-0.805,3.132c-0.987,1.326-2.769,1.669-2.769,1.669
				s-0.182-1.806,0.805-3.132C384.049,206.048,385.831,205.704,385.831,205.704z"/>
			<path style="fill:#FFFFFF;" d="M391.755,214.028c0,0,0.182,1.806-0.805,3.132c-0.987,1.326-2.769,1.669-2.769,1.669
				s-0.182-1.806,0.805-3.132C389.973,214.372,391.755,214.028,391.755,214.028z"/>
			<path style="fill:#FFFFFF;" d="M391.753,230.235c0,0-0.437,1.762-1.813,2.678c-1.376,0.916-3.17,0.64-3.17,0.64
				s0.437-1.762,1.813-2.678C389.959,229.958,391.753,230.235,391.753,230.235z"/>
			<path style="fill:#FFFFFF;" d="M359.216,230.235c0,0,0.437,1.762,1.813,2.678c1.376,0.916,3.17,0.64,3.17,0.64
				s-0.437-1.762-1.813-2.678C361.009,229.958,359.216,230.235,359.216,230.235z"/>
			<path style="fill:#FFFFFF;" d="M384.91,223.508c0,0,0.182,1.806-0.805,3.132c-0.987,1.326-2.769,1.669-2.769,1.669
				s-0.182-1.806,0.805-3.132C383.128,223.851,384.91,223.508,384.91,223.508z"/>
			<path style="fill:#FFFFFF;" d="M383.375,196.649c0,0,0.182,1.806-0.805,3.132c-0.987,1.326-2.769,1.669-2.769,1.669
				s-0.182-1.806,0.805-3.132C381.593,196.992,383.375,196.649,383.375,196.649z"/>
			<path style="fill:#FFFFFF;" d="M379.845,203.555c0,0,0.182,1.806-0.805,3.132c-0.987,1.326-2.769,1.669-2.769,1.669
				s-0.182-1.806,0.805-3.132C378.063,203.899,379.845,203.555,379.845,203.555z"/>
			<path style="fill:#FFFFFF;" d="M388.225,198.527c0,0,0.182,1.806-0.805,3.132c-0.987,1.326-2.769,1.669-2.769,1.669
				s-0.182-1.806,0.805-3.132C386.443,198.87,388.225,198.527,388.225,198.527z"/>
			<path style="fill:#FFFFFF;" d="M360.994,198.527c0,0-0.182,1.806,0.805,3.132c0.987,1.326,2.769,1.669,2.769,1.669
				s0.182-1.806-0.805-3.132C362.776,198.87,360.994,198.527,360.994,198.527z"/>
			<path style="fill:#FFFFFF;" d="M384.143,188.208c0,0,0.182,1.806-0.805,3.132c-0.987,1.326-2.769,1.669-2.769,1.669
				s-0.182-1.806,0.805-3.132C382.361,188.551,384.143,188.208,384.143,188.208z"/>
			<path style="fill:#FFFFFF;" d="M382.408,179.241c0,0,0.63,1.702,0.007,3.234c-0.622,1.531-2.261,2.311-2.261,2.311
				s-0.63-1.702-0.007-3.234C380.769,180.021,382.408,179.241,382.408,179.241z"/>
			<path style="fill:#FFFFFF;" d="M369.977,176.898c0,0,1.608,0.842,2.171,2.396c0.564,1.554-0.13,3.231-0.13,3.231
				s-1.608-0.842-2.171-2.396C369.283,178.575,369.977,176.898,369.977,176.898z"/>
			<path style="fill:#FFFFFF;" d="M375.774,187.62c0,0,1.145,1.408,1.051,3.058c-0.095,1.65-1.394,2.918-1.394,2.918
				s-1.145-1.408-1.05-3.058C374.475,188.887,375.774,187.62,375.774,187.62z"/>
			<path style="fill:#FFFFFF;" d="M375.467,171.658c0,0,1.145,1.408,1.051,3.058c-0.095,1.65-1.394,2.917-1.394,2.917
				s-1.145-1.408-1.051-3.058C374.168,172.926,375.467,171.658,375.467,171.658z"/>
			<path style="fill:#FFFFFF;" d="M362.457,205.704c0,0-0.182,1.806,0.805,3.132c0.987,1.326,2.769,1.669,2.769,1.669
				s0.182-1.806-0.805-3.132C364.24,206.048,362.457,205.704,362.457,205.704z"/>
			<path style="fill:#FFFFFF;" d="M359.081,215.527c0,0-0.182,1.806,0.805,3.132c0.987,1.326,2.769,1.669,2.769,1.669
				s0.182-1.806-0.805-3.132C360.863,215.87,359.081,215.527,359.081,215.527z"/>
			<path style="fill:#FFFFFF;" d="M368.044,219.093c0,0-0.182,1.806,0.805,3.132c0.987,1.326,2.769,1.669,2.769,1.669
				s0.182-1.806-0.805-3.132C369.826,219.436,368.044,219.093,368.044,219.093z"/>
			<path style="fill:#FFFFFF;" d="M370.494,205.482c0,0-0.691,1.678-0.125,3.231c0.566,1.553,2.175,2.392,2.175,2.392
				s0.691-1.678,0.125-3.231C372.104,206.322,370.494,205.482,370.494,205.482z"/>
			<path style="fill:#FFFFFF;" d="M364.148,241.699c0,0,1.815,0.033,3.055-1.059c1.24-1.092,1.437-2.897,1.437-2.897
				s-1.815-0.033-3.055,1.059C364.344,239.895,364.148,241.699,364.148,241.699z"/>
			<path style="fill:#FFFFFF;" d="M381.562,239.714c0,0,0.493,1.747,1.897,2.618c1.404,0.872,3.189,0.538,3.189,0.538
				s-0.493-1.747-1.897-2.618C383.346,239.38,381.562,239.714,381.562,239.714z"/>
			<path style="fill:#FFFFFF;" d="M366.172,196.649c0,0-0.182,1.806,0.805,3.132c0.987,1.326,2.769,1.669,2.769,1.669
				s0.182-1.806-0.805-3.132C367.954,196.992,366.172,196.649,366.172,196.649z"/>
			<path style="fill:#FFFFFF;" d="M366.141,188.668c0,0-0.182,1.806,0.805,3.132c0.987,1.326,2.769,1.669,2.769,1.669
				s0.182-1.806-0.805-3.132C367.923,189.012,366.141,188.668,366.141,188.668z"/>
		</g>
	</g>
	<g>
		<path style="fill:#92E3A9;" d="M357.181,261.754c0,9.313-5.509,16.862-12.305,16.862c-6.796,0-12.305-7.549-12.305-16.862
			c0-9.313,5.509-41.32,12.305-41.32C351.672,220.434,357.181,252.442,357.181,261.754z"/>
		<path style="opacity:0.5;fill:#FFFFFF;" d="M357.181,261.754c0,9.313-5.509,16.862-12.305,16.862
			c-6.796,0-12.305-7.549-12.305-16.862c0-9.313,5.509-41.32,12.305-41.32C351.672,220.434,357.181,252.442,357.181,261.754z"/>
		<polygon style="fill:#999999;" points="338.229,262.592 342.154,263.961 344.098,266.603 343.758,274.695 341.496,273.16 
			343.688,276.369 343.299,291.479 345.524,291.479 345.258,270.22 351.776,266.627 348.05,268.005 348.798,265.762 
			347.016,268.387 345.238,269.045 345.111,261.68 351.584,253.08 348.115,256.549 348.701,254.137 347.042,257.622 
			345.075,259.589 344.876,248.082 344.171,264.865 338.037,258.364 341.407,262.944 		"/>
		<g>
			<path style="fill:#FFFFFF;" d="M351.646,248.119c0,0,0.114,1.13-0.504,1.96c-0.618,0.83-1.734,1.045-1.734,1.045
				s-0.114-1.13,0.504-1.96C350.53,248.334,351.646,248.119,351.646,248.119z"/>
			<path style="fill:#FFFFFF;" d="M355.354,253.329c0,0,0.114,1.13-0.504,1.96c-0.618,0.83-1.734,1.045-1.734,1.045
				s-0.114-1.131,0.504-1.96C354.239,253.544,355.354,253.329,355.354,253.329z"/>
			<path style="fill:#FFFFFF;" d="M355.353,263.475c0,0-0.273,1.103-1.135,1.676c-0.861,0.573-1.984,0.4-1.984,0.4
				s0.273-1.103,1.135-1.676C354.23,263.302,355.353,263.475,355.353,263.475z"/>
			<path style="fill:#FFFFFF;" d="M334.985,263.475c0,0,0.273,1.103,1.135,1.676c0.861,0.573,1.984,0.4,1.984,0.4
				s-0.273-1.103-1.135-1.676C336.108,263.302,334.985,263.475,334.985,263.475z"/>
			<path style="fill:#FFFFFF;" d="M351.069,259.263c0,0,0.114,1.13-0.504,1.96c-0.618,0.83-1.733,1.045-1.733,1.045
				s-0.114-1.13,0.504-1.96C349.954,259.478,351.069,259.263,351.069,259.263z"/>
			<path style="fill:#FFFFFF;" d="M350.109,242.45c0,0,0.114,1.13-0.504,1.96c-0.618,0.83-1.734,1.045-1.734,1.045
				s-0.114-1.131,0.504-1.96C348.993,242.665,350.109,242.45,350.109,242.45z"/>
			<path style="fill:#FFFFFF;" d="M347.899,246.774c0,0,0.114,1.131-0.504,1.96c-0.618,0.83-1.734,1.045-1.734,1.045
				s-0.114-1.13,0.504-1.96C346.783,246.989,347.899,246.774,347.899,246.774z"/>
			<path style="fill:#FFFFFF;" d="M353.145,243.626c0,0,0.114,1.13-0.504,1.96c-0.618,0.83-1.734,1.045-1.734,1.045
				s-0.114-1.13,0.504-1.96C352.029,243.841,353.145,243.626,353.145,243.626z"/>
			<path style="fill:#FFFFFF;" d="M336.098,243.626c0,0-0.114,1.13,0.504,1.96c0.618,0.83,1.734,1.045,1.734,1.045
				s0.114-1.13-0.504-1.96C337.214,243.841,336.098,243.626,336.098,243.626z"/>
			<path style="fill:#FFFFFF;" d="M350.589,237.166c0,0,0.114,1.13-0.504,1.96c-0.618,0.83-1.733,1.045-1.733,1.045
				s-0.114-1.13,0.504-1.96C349.473,237.381,350.589,237.166,350.589,237.166z"/>
			<path style="fill:#FFFFFF;" d="M349.503,231.553c0,0,0.394,1.066,0.005,2.024s-1.415,1.447-1.415,1.447s-0.394-1.066-0.005-2.024
				C348.477,232.042,349.503,231.553,349.503,231.553z"/>
			<path style="fill:#FFFFFF;" d="M341.722,230.086c0,0,1.007,0.527,1.359,1.5c0.353,0.973-0.082,2.022-0.082,2.022
				s-1.007-0.527-1.359-1.5C341.287,231.136,341.722,230.086,341.722,230.086z"/>
			<path style="fill:#FFFFFF;" d="M345.35,236.798c0,0,0.717,0.881,0.658,1.914c-0.059,1.033-0.873,1.826-0.873,1.826
				s-0.717-0.881-0.658-1.914C344.537,237.592,345.35,236.798,345.35,236.798z"/>
			<path style="fill:#FFFFFF;" d="M345.158,226.807c0,0,0.717,0.881,0.658,1.914c-0.059,1.033-0.873,1.826-0.873,1.826
				s-0.717-0.881-0.658-1.914C344.345,227.6,345.158,226.807,345.158,226.807z"/>
			<path style="fill:#FFFFFF;" d="M337.014,248.119c0,0-0.114,1.13,0.504,1.96c0.618,0.83,1.734,1.045,1.734,1.045
				s0.114-1.13-0.504-1.96C338.13,248.334,337.014,248.119,337.014,248.119z"/>
			<path style="fill:#FFFFFF;" d="M334.901,254.268c0,0-0.114,1.13,0.504,1.96c0.618,0.83,1.734,1.045,1.734,1.045
				s0.114-1.13-0.504-1.96C336.016,254.483,334.901,254.268,334.901,254.268z"/>
			<path style="fill:#FFFFFF;" d="M340.511,256.5c0,0-0.114,1.13,0.504,1.96c0.618,0.83,1.733,1.045,1.733,1.045
				s0.114-1.131-0.504-1.96S340.511,256.5,340.511,256.5z"/>
			<path style="fill:#FFFFFF;" d="M342.045,247.98c0,0-0.433,1.051-0.078,2.023c0.354,0.972,1.362,1.498,1.362,1.498
				s0.433-1.051,0.078-2.023C343.053,248.506,342.045,247.98,342.045,247.98z"/>
			<path style="fill:#FFFFFF;" d="M338.072,270.651c0,0,1.136,0.021,1.913-0.663s0.899-1.814,0.899-1.814s-1.136-0.021-1.912,0.663
				C338.195,269.522,338.072,270.651,338.072,270.651z"/>
			<path style="fill:#FFFFFF;" d="M348.973,269.408c0,0,0.309,1.094,1.188,1.639c0.879,0.546,1.996,0.337,1.996,0.337
				s-0.309-1.094-1.188-1.639C350.09,269.199,348.973,269.408,348.973,269.408z"/>
			<path style="fill:#FFFFFF;" d="M339.34,242.45c0,0-0.114,1.13,0.504,1.96c0.618,0.83,1.734,1.045,1.734,1.045
				s0.114-1.131-0.504-1.96C340.455,242.665,339.34,242.45,339.34,242.45z"/>
			<path style="fill:#FFFFFF;" d="M339.32,237.454c0,0-0.114,1.13,0.504,1.96c0.618,0.83,1.734,1.045,1.734,1.045
				s0.114-1.13-0.504-1.96C340.436,237.669,339.32,237.454,339.32,237.454z"/>
		</g>
	</g>
</g>
<g id="Rocks">
	<g>
		<path style="fill:#A8A8A8;" d="M445.929,212.456l-30.667,15.585l-5.53,15.082l-2.514,10.557l-28.153,20.109l-2.011,6.033
			l1.508,4.525l-15.082,5.027l-29.661,3.519l-26.645,9.049l-8.547,9.049l-10.557,20.612l-14.077,13.574l-39.716,4.525l-69.377-6.033
			l-54.295,11.06l-12.066,10.055L87.983,376.85c0,0-44.743,11.563-46.251,13.071c-0.016,0.016-0.057,0.047-0.081,0.068
			c12.865,18.775,29.72,35.249,50.756,48.151c6.822,4.195,14.091,8.015,21.804,11.406c14.347,6.31,30.23,11.179,47.697,14.319
			c112.029,20.149,126.944-34.471,192.613-46.705c43.462-8.092,79.182-50.198,99.325-90.812
			c16.663-33.593,26.541-74.573,26.793-114.738L445.929,212.456z"/>
		<polygon style="fill:#C9C9C9;" points="379.233,290.069 325.115,298.948 333.571,307.826 385.152,319.664 396.144,308.672 		"/>
		<polygon style="fill:#C9C9C9;" points="274.803,352.219 249.013,350.951 212.653,356.447 235.484,362.366 287.064,367.44 		"/>
		<polygon style="fill:#C9C9C9;" points="448.147,216.081 445.663,217.398 420.243,230.878 439.692,243.562 473.938,238.066 
			466.75,222.845 		"/>
		<polygon style="fill:#C9C9C9;" points="408.828,260.051 383.038,276.117 391.071,281.19 422.78,287.109 414.324,274.848 		"/>
		<polygon style="fill:#C9C9C9;" points="368.663,338.69 375.85,353.487 373.314,358.138 377.119,362.366 394.876,353.487 
			432.927,349.682 421.934,339.535 		"/>
		<polygon style="fill:#C9C9C9;" points="158.959,347.991 113.72,359.406 142.893,367.862 170.797,367.017 169.951,351.374 		"/>
		<path style="fill:#C9C9C9;" d="M71.864,388.156l-24.977,9.05c7.717,10.073,16.668,19.387,26.89,27.724l16.267-13.943
			l-1.691-24.522L71.864,388.156z"/>
		<g>
			<path style="fill:none;stroke:#263238;stroke-linecap:round;stroke-linejoin:round;stroke-miterlimit:10;" d="M487.153,211.451
				l-41.224,1.005l-30.667,15.585l-5.53,15.082l-2.514,10.557l-28.153,20.109l-2.011,6.033l1.508,4.525l-15.082,5.027l-29.661,3.519
				l-26.645,9.049l-8.547,9.049l-10.557,20.612l-14.077,13.574l-39.716,4.525l-69.377-6.033l-54.295,11.06l-12.066,10.055
				L87.983,376.85c0,0-44.743,11.563-46.251,13.071S3.694,414.361,3.694,414.361"/>
			<g>
				<path style="fill:#263238;stroke:#263238;stroke-linecap:round;stroke-linejoin:round;stroke-miterlimit:10;" d="
					M448.481,408.566l11.121-14.672l26.676,2.5v-74.681c-23.193-0.165-30.106-0.352-31.783-0.352c-1.995,0,7.655-5.558,31.783-9.299
					v-72.526l-43.21,9.055c0,0-3.007,8.42-3.007,10.224c0,1.804,16.84-3.007,16.84-3.007l-0.602,10.224l-10.224,4.811
					c0,0-13.833,6.616-13.231,10.826c0.601,4.21-4.811,10.826-4.811,10.826l-7.818,4.811l-6.616-3.007l-9.623-7.217l-20.448-1.804
					l14.434,8.42l6.615,12.63l16.84,4.811l-21.651,14.434l-66.757-9.021l-19.847,4.21l-5.413,16.238l10.826,7.818l-5.413,8.42
					l-9.623,3.609l-9.021,8.42c0,0-2.406,5.413-4.21,6.014c-1.804,0.602-43.302-1.804-43.302-1.804l-12.028,15.637l-72.771-13.231
					l-18.042,10.826l18.644,10.826l-19.847,4.21l-6.616,11.427l-35.484,16.84l7.217,14.434l-31.494-11.973l-45.42,22.371
					l122.774,39.159l88.732-6.619l107.176-24.293l69.079-31.973l-6.205-5.447l11.427-9.021L448.481,408.566z M148.976,432.623
					l-16.238-9.021l12.63-13.231l23.455,3.608L148.976,432.623z M233.776,433.224l-39.092-2.406l11.427-10.224h24.057l7.217,4.811
					l30.071-10.224L233.776,433.224z M292.714,407.965l-12.028-4.21l19.847-11.427L292.714,407.965z M241.594,415.182
					c-1.804-0.601-28.868-2.406-28.868-2.406l-3.007-8.42l39.092-16.84l52.323-3.007
					C301.134,384.51,243.398,415.783,241.594,415.182z M366.689,335.795l64.953-3.007l9.598,14.475l-5.588,9.106l-31.675,3.483
					l19.523,3.327l-5.988,9.758l-40.599-5.266l-20.448-16.84L366.689,335.795z M362.479,383.908l-15.637,4.811l-16.84-4.811v-7.818
					l21.05-20.448l10.826,9.021l10.224,7.818l27.665,4.811L362.479,383.908z"/>
			</g>
		</g>
	</g>
</g>
<g id="Plants">
	<g>
		<path style="fill:#263238;" d="M17.89,359.64c1.13,0.493,3.894,0.431,3.896,0.431c0.029-0.001-0.594-1.809-0.647-1.919
			c-0.606-1.269-2.524-3.363-4.085-3.152c-1.124,0.152-1.749,1.277-1.495,2.335C15.819,358.416,16.928,359.219,17.89,359.64z"/>
		<path style="fill:#263238;" d="M18.844,367.646c1.172,0.171,3.639-0.544,3.835-0.602c0.39,1.381,0.901,2.766,1.496,4.14
			c0.339,0.786,0.705,1.566,1.082,2.344c-0.225-0.329-0.429-0.622-0.461-0.661c-0.92-1.063-3.323-2.577-4.772-1.962
			c-1.045,0.443-1.35,1.693-0.826,2.647c0.535,0.974,1.817,1.456,2.856,1.607c1.055,0.154,3.17-0.414,3.728-0.572
			c0.148,0.297,0.292,0.595,0.441,0.892c0.714,1.422,1.433,2.838,2.096,4.249c0.234,0.497,0.446,0.995,0.66,1.493
			c-0.2-0.293-0.371-0.537-0.401-0.572c-0.92-1.063-3.323-2.577-4.772-1.962c-1.044,0.443-1.35,1.694-0.826,2.647
			c0.536,0.974,1.817,1.456,2.857,1.607c1.006,0.147,2.964-0.36,3.627-0.544c0.204,0.516,0.409,1.033,0.583,1.542
			c0.111,0.35,0.242,0.68,0.334,1.038c0.099,0.353,0.196,0.702,0.292,1.048c0.161,0.673,0.332,1.366,0.473,2.026
			c0.101,0.459,0.19,0.897,0.28,1.339c-0.227-0.498-0.692-1.462-0.74-1.538c-0.748-1.191-2.894-3.051-4.42-2.662
			c-1.099,0.28-1.591,1.47-1.217,2.492c0.381,1.044,1.575,1.714,2.58,2.021c1.106,0.338,3.554,0.029,3.86-0.011
			c0.147,0.732,0.283,1.444,0.4,2.119c0.262,1.489,0.461,2.824,0.611,3.954h1.032c-0.18-1.169-0.415-2.561-0.726-4.125
			c-0.146-0.743-0.317-1.535-0.5-2.346c0.184-0.073,1.228-0.495,2.153-1.013c0.806,0.873,2.871,1.894,3.139,2.024
			c-0.281,0.691-0.561,1.361-0.836,1.988c-0.571,1.314-0.278,0.458-0.757,1.45l1.09-0.172c0.412-0.914,0.055,0.239,0.526-0.915
			c0.288-0.701,0.583-1.455,0.877-2.232c0.296,0.062,2.72,0.554,3.849,0.299c1.024-0.231,2.265-0.811,2.724-1.824
			c0.449-0.991,0.047-2.214-1.029-2.576c-1.492-0.501-3.771,1.194-4.606,2.325c-0.05,0.067-0.503,0.851-0.781,1.35
			c0.119-0.318,0.237-0.626,0.356-0.955c0.239-0.649,0.457-1.304,0.694-2.008c0.103-0.344,0.207-0.691,0.312-1.042
			c0.111-0.346,0.185-0.725,0.28-1.091c0.203-0.853,0.367-1.726,0.513-2.61c0.569,0.207,2.601,0.914,3.653,0.84
			c1.048-0.074,2.362-0.458,2.968-1.39c0.594-0.912,0.382-2.181-0.626-2.701c-1.4-0.722-3.909,0.609-4.905,1.601
			c-0.062,0.062-0.697,0.854-1.038,1.296c0.084-0.532,0.17-1.062,0.237-1.603c0.194-1.561,0.341-3.148,0.495-4.73
			c0.047-0.485,0.1-0.967,0.151-1.45c0.202,0.076,2.598,0.968,3.777,0.885c1.048-0.073,2.362-0.458,2.968-1.39
			c0.594-0.912,0.382-2.181-0.626-2.701c-1.399-0.722-3.908,0.609-4.905,1.601c-0.075,0.075-0.988,1.216-1.205,1.517
			c0.113-1.064,0.234-2.123,0.397-3.162c0.222-1.434,0.52-2.828,0.908-4.158c0.093,0.036,2.591,0.978,3.798,0.893
			c1.048-0.073,2.362-0.458,2.969-1.39c0.594-0.912,0.382-2.181-0.626-2.702c-1.399-0.722-3.908,0.609-4.905,1.601
			c-0.078,0.078-1.059,1.306-1.221,1.542c0.023-0.079,0.039-0.163,0.063-0.242c0.432-1.414,1.029-2.73,1.647-3.935
			c0.358-0.701,0.74-1.351,1.125-1.974c0.447,0.223,2.502,1.221,3.597,1.265c1.049,0.042,2.398-0.196,3.103-1.056
			c0.691-0.841,0.62-2.127-0.325-2.754c-1.312-0.871-3.952,0.176-5.051,1.052c-0.06,0.048-0.614,0.599-1.012,1.007
			c0.178-0.279,0.357-0.57,0.533-0.834c0.659-0.992,1.323-1.86,1.917-2.624c0.342-0.431,0.659-0.815,0.96-1.171
			c0.553-0.009,2.781-0.077,3.755-0.535c0.95-0.446,2.038-1.279,2.268-2.366c0.225-1.065-0.431-2.173-1.558-2.294
			c-1.566-0.169-3.426,1.977-3.998,3.262c-0.049,0.111-0.623,1.936-0.594,1.936c0,0,0.027,0,0.034,0
			c-0.297,0.337-0.611,0.7-0.945,1.105c-0.613,0.752-1.298,1.608-1.98,2.589c-0.685,0.979-1.401,2.062-2.053,3.271
			c-0.655,1.211-1.282,2.518-1.754,3.949c-0.006,0.016-0.009,0.034-0.014,0.05c0.008-0.461-0.012-1.752-0.025-1.85
			c-0.181-1.395-1.349-3.983-2.898-4.269c-1.115-0.206-2.06,0.668-2.149,1.753c-0.09,1.108,0.713,2.217,1.496,2.917
			c0.883,0.789,3.335,1.553,3.53,1.614c-0.437,1.366-0.774,2.804-1.036,4.277c-0.15,0.843-0.276,1.696-0.39,2.553
			c-0.006-0.399-0.014-0.756-0.021-0.806c-0.181-1.395-1.35-3.983-2.898-4.269c-1.116-0.206-2.06,0.668-2.149,1.753
			c-0.091,1.108,0.712,2.217,1.496,2.916c0.795,0.71,2.872,1.404,3.424,1.58c-0.041,0.329-0.085,0.658-0.124,0.987
			c-0.189,1.58-0.37,3.158-0.596,4.7c-0.079,0.544-0.177,1.076-0.273,1.609c-0.006-0.354-0.013-0.653-0.019-0.698
			c-0.181-1.395-1.349-3.983-2.898-4.269c-1.116-0.206-2.061,0.668-2.15,1.753c-0.091,1.107,0.713,2.217,1.496,2.916
			c0.758,0.678,2.67,1.335,3.325,1.547c-0.115,0.543-0.229,1.087-0.365,1.608c-0.101,0.353-0.174,0.701-0.294,1.05
			c-0.112,0.348-0.224,0.694-0.334,1.035c-0.237,0.65-0.477,1.322-0.723,1.951c-0.168,0.439-0.337,0.853-0.505,1.271
			c0.085-0.54,0.23-1.601,0.232-1.691c0.022-0.934-0.31-2.452-0.971-3.52c0.004-0.138-0.004-0.275-0.026-0.412
			c-0.173-1.075-1.182-1.873-2.279-1.581c-1.522,0.405-2.487,3.076-2.559,4.48c-0.004,0.083,0.05,0.987,0.093,1.557
			c-0.077-0.331-0.147-0.653-0.23-0.993c-0.16-0.673-0.339-1.34-0.528-2.058c-0.104-0.344-0.209-0.691-0.315-1.041
			c-0.098-0.35-0.245-0.707-0.368-1.064c-0.301-0.823-0.646-1.642-1.012-2.46c0.589-0.141,2.673-0.673,3.51-1.315
			c0.833-0.639,1.717-1.685,1.709-2.797c-0.008-1.089-0.885-2.031-2.013-1.908c-1.566,0.17-2.924,2.664-3.208,4.041
			c-0.017,0.086-0.11,1.097-0.151,1.653c-0.224-0.489-0.445-0.98-0.687-1.468c-0.7-1.409-1.451-2.814-2.196-4.218
			c-0.228-0.43-0.45-0.862-0.675-1.292c0.21-0.048,2.701-0.626,3.639-1.345c0.833-0.639,1.717-1.685,1.709-2.797
			c-0.008-1.088-0.885-2.03-2.013-1.908c-1.565,0.17-2.924,2.664-3.208,4.041c-0.021,0.104-0.153,1.559-0.168,1.93
			c-0.493-0.949-0.976-1.9-1.413-2.856c-0.605-1.319-1.127-2.646-1.537-3.969c0.098-0.022,2.701-0.614,3.661-1.35
			c0.833-0.639,1.717-1.685,1.709-2.797c-0.007-1.088-0.885-2.03-2.013-1.908c-1.566,0.17-2.924,2.664-3.208,4.041
			c-0.022,0.108-0.163,1.674-0.168,1.959c-0.024-0.078-0.058-0.157-0.081-0.236c-0.42-1.418-0.648-2.845-0.797-4.191
			c-0.088-0.782-0.128-1.534-0.15-2.267c0.496-0.061,2.76-0.362,3.697-0.93c0.899-0.544,1.892-1.487,2.006-2.592
			c0.112-1.083-0.657-2.115-1.791-2.117c-1.575-0.003-3.199,2.327-3.633,3.664c-0.024,0.073-0.181,0.839-0.288,1.398
			c-0.005-0.331-0.017-0.672-0.015-0.989c0.002-1.191,0.077-2.281,0.152-3.246c0.047-0.548,0.1-1.044,0.155-1.506
			c0.456-0.314,2.277-1.599,2.837-2.518c0.547-0.897,0.994-2.191,0.586-3.225c-0.4-1.013-1.557-1.575-2.565-1.054
			c-1.399,0.723-1.767,3.539-1.536,4.926c0.02,0.12,0.549,1.958,0.573,1.942c0,0,0.022-0.015,0.027-0.019
			c-0.062,0.444-0.122,0.921-0.178,1.443c-0.096,0.965-0.195,2.057-0.223,3.252c-0.031,1.194-0.031,2.493,0.092,3.861
			c0.122,1.371,0.32,2.807,0.715,4.261c0.005,0.016,0.011,0.033,0.016,0.049c-0.248-0.389-0.977-1.454-1.042-1.53
			c-0.92-1.064-3.322-2.577-4.772-1.962c-1.044,0.444-1.35,1.694-0.826,2.648C16.524,367.013,17.805,367.494,18.844,367.646z"/>
		<path style="fill:#263238;" d="M45.847,360.248c0.024,0.015,0.503-1.837,0.52-1.957c0.194-1.392-0.25-4.198-1.668-4.883
			c-1.021-0.493-2.163,0.1-2.535,1.123c-0.38,1.044,0.102,2.326,0.672,3.208C43.505,358.774,45.845,360.247,45.847,360.248z"/>
	</g>
	<g>
		<path style="fill:#263238;" d="M393.682,236.747c0.645,0.282,2.222,0.246,2.223,0.246c0.016,0-0.339-1.033-0.369-1.095
			c-0.346-0.724-1.44-1.92-2.331-1.799c-0.641,0.087-0.998,0.729-0.853,1.333C392.5,236.049,393.133,236.507,393.682,236.747z"/>
		<path style="fill:#263238;" d="M394.227,241.316c0.669,0.098,2.077-0.311,2.189-0.344c0.222,0.788,0.514,1.579,0.854,2.362
			c0.194,0.448,0.402,0.894,0.618,1.338c-0.128-0.188-0.245-0.355-0.263-0.377c-0.525-0.607-1.896-1.471-2.724-1.119
			c-0.596,0.253-0.77,0.966-0.471,1.511c0.305,0.556,1.037,0.831,1.63,0.917c0.602,0.088,1.809-0.236,2.127-0.326
			c0.084,0.169,0.167,0.34,0.252,0.509c0.408,0.812,0.818,1.62,1.196,2.425c0.133,0.284,0.254,0.568,0.376,0.852
			c-0.114-0.167-0.212-0.307-0.229-0.326c-0.525-0.607-1.896-1.471-2.723-1.12c-0.596,0.253-0.77,0.967-0.471,1.511
			c0.306,0.556,1.037,0.831,1.63,0.917c0.574,0.084,1.691-0.205,2.07-0.31c0.116,0.295,0.233,0.589,0.332,0.88
			c0.063,0.2,0.138,0.388,0.19,0.592c0.056,0.201,0.112,0.401,0.167,0.598c0.092,0.384,0.19,0.78,0.27,1.156
			c0.058,0.262,0.108,0.512,0.16,0.764c-0.129-0.284-0.395-0.834-0.422-0.878c-0.427-0.679-1.651-1.741-2.522-1.519
			c-0.627,0.16-0.908,0.839-0.695,1.422c0.218,0.596,0.899,0.978,1.472,1.154c0.631,0.193,2.028,0.016,2.203-0.007
			c0.084,0.417,0.161,0.824,0.228,1.209c0.15,0.85,0.263,1.612,0.349,2.256h0.589c-0.103-0.667-0.237-1.462-0.415-2.354
			c-0.083-0.424-0.181-0.876-0.285-1.339c0.105-0.042,0.701-0.283,1.229-0.578c0.46,0.498,1.639,1.081,1.791,1.155
			c-0.161,0.395-0.32,0.777-0.477,1.135c-0.326,0.75-0.159,0.261-0.432,0.827l0.622-0.098c0.235-0.522,0.031,0.136,0.3-0.522
			c0.165-0.4,0.333-0.831,0.501-1.274c0.169,0.035,1.552,0.316,2.197,0.171c0.584-0.132,1.293-0.463,1.554-1.041
			c0.256-0.566,0.027-1.264-0.587-1.47c-0.852-0.286-2.152,0.681-2.629,1.327c-0.028,0.038-0.287,0.485-0.445,0.77
			c0.068-0.182,0.135-0.357,0.203-0.545c0.136-0.371,0.261-0.744,0.396-1.146c0.059-0.196,0.118-0.395,0.178-0.595
			c0.064-0.197,0.106-0.414,0.16-0.622c0.116-0.487,0.209-0.985,0.293-1.489c0.325,0.118,1.484,0.521,2.085,0.479
			c0.598-0.042,1.348-0.261,1.694-0.793c0.339-0.52,0.218-1.245-0.357-1.542c-0.799-0.412-2.231,0.348-2.799,0.914
			c-0.036,0.035-0.398,0.487-0.592,0.74c0.048-0.304,0.097-0.606,0.135-0.915c0.111-0.891,0.195-1.796,0.283-2.699
			c0.027-0.277,0.057-0.552,0.086-0.827c0.115,0.043,1.483,0.553,2.156,0.505c0.598-0.042,1.348-0.262,1.694-0.793
			c0.339-0.52,0.218-1.245-0.357-1.542c-0.799-0.412-2.23,0.348-2.799,0.913c-0.043,0.043-0.564,0.694-0.688,0.866
			c0.064-0.607,0.134-1.211,0.227-1.804c0.127-0.818,0.297-1.614,0.518-2.373c0.053,0.02,1.479,0.558,2.167,0.51
			c0.598-0.042,1.348-0.262,1.694-0.793c0.339-0.521,0.218-1.245-0.357-1.542c-0.799-0.412-2.23,0.348-2.799,0.913
			c-0.044,0.044-0.604,0.745-0.697,0.88c0.013-0.045,0.022-0.093,0.036-0.138c0.247-0.807,0.587-1.558,0.94-2.246
			c0.204-0.4,0.422-0.771,0.642-1.127c0.255,0.127,1.428,0.697,2.053,0.722c0.599,0.024,1.368-0.112,1.771-0.602
			c0.394-0.48,0.354-1.214-0.186-1.572c-0.749-0.497-2.255,0.1-2.883,0.601c-0.034,0.027-0.35,0.342-0.577,0.575
			c0.102-0.159,0.203-0.325,0.304-0.476c0.376-0.566,0.755-1.061,1.094-1.497c0.195-0.246,0.376-0.465,0.548-0.668
			c0.315-0.005,1.587-0.044,2.143-0.305c0.542-0.255,1.163-0.73,1.294-1.351c0.129-0.608-0.246-1.24-0.889-1.309
			c-0.893-0.096-1.955,1.128-2.282,1.861c-0.028,0.064-0.355,1.105-0.339,1.105c0,0,0.015,0,0.019,0
			c-0.169,0.192-0.348,0.4-0.539,0.631c-0.35,0.429-0.741,0.918-1.13,1.478c-0.391,0.559-0.8,1.177-1.172,1.867
			c-0.374,0.691-0.732,1.437-1.001,2.253c-0.003,0.009-0.005,0.019-0.008,0.028c0.005-0.263-0.007-1-0.014-1.056
			c-0.103-0.796-0.77-2.273-1.654-2.437c-0.637-0.117-1.176,0.381-1.227,1c-0.052,0.632,0.407,1.265,0.854,1.665
			c0.504,0.45,1.904,0.886,2.015,0.921c-0.249,0.78-0.442,1.6-0.591,2.441c-0.086,0.481-0.157,0.968-0.223,1.457
			c-0.003-0.228-0.008-0.432-0.012-0.46c-0.103-0.796-0.77-2.273-1.654-2.436c-0.637-0.118-1.176,0.381-1.226,1
			c-0.052,0.632,0.407,1.265,0.853,1.664c0.454,0.405,1.639,0.801,1.954,0.902c-0.023,0.188-0.048,0.375-0.071,0.563
			c-0.108,0.902-0.211,1.802-0.34,2.682c-0.045,0.31-0.101,0.614-0.156,0.918c-0.003-0.202-0.008-0.373-0.011-0.398
			c-0.103-0.796-0.77-2.273-1.654-2.436c-0.637-0.118-1.176,0.381-1.227,1.001c-0.052,0.632,0.407,1.265,0.854,1.664
			c0.433,0.387,1.524,0.762,1.898,0.883c-0.065,0.31-0.131,0.62-0.208,0.917c-0.058,0.202-0.099,0.4-0.168,0.599
			c-0.064,0.199-0.128,0.396-0.191,0.591c-0.135,0.371-0.272,0.755-0.413,1.114c-0.096,0.25-0.192,0.487-0.288,0.725
			c0.048-0.308,0.131-0.914,0.132-0.965c0.012-0.533-0.177-1.4-0.554-2.009c0.002-0.079-0.002-0.157-0.015-0.235
			c-0.099-0.613-0.675-1.069-1.301-0.902c-0.868,0.231-1.419,1.755-1.46,2.557c-0.003,0.047,0.029,0.563,0.053,0.888
			c-0.044-0.189-0.084-0.373-0.131-0.567c-0.091-0.384-0.193-0.765-0.302-1.175c-0.059-0.196-0.119-0.394-0.18-0.594
			c-0.056-0.199-0.14-0.403-0.21-0.607c-0.172-0.469-0.369-0.937-0.577-1.404c0.336-0.081,1.526-0.384,2.003-0.75
			c0.476-0.365,0.98-0.962,0.975-1.596c-0.004-0.621-0.505-1.159-1.149-1.089c-0.894,0.097-1.669,1.52-1.831,2.306
			c-0.01,0.049-0.063,0.626-0.086,0.943c-0.128-0.279-0.254-0.559-0.392-0.838c-0.399-0.804-0.828-1.606-1.253-2.407
			c-0.13-0.246-0.257-0.492-0.385-0.738c0.12-0.027,1.542-0.357,2.077-0.768c0.475-0.365,0.98-0.962,0.975-1.596
			c-0.004-0.621-0.505-1.159-1.149-1.089c-0.893,0.097-1.669,1.52-1.831,2.306c-0.012,0.059-0.087,0.889-0.096,1.102
			c-0.281-0.542-0.557-1.084-0.807-1.63c-0.346-0.752-0.643-1.51-0.877-2.265c0.056-0.013,1.541-0.35,2.089-0.771
			c0.475-0.365,0.98-0.962,0.975-1.596c-0.004-0.621-0.505-1.159-1.149-1.089c-0.893,0.097-1.669,1.52-1.831,2.306
			c-0.013,0.062-0.093,0.955-0.096,1.118c-0.014-0.045-0.033-0.09-0.046-0.135c-0.239-0.809-0.37-1.624-0.455-2.392
			c-0.05-0.446-0.073-0.876-0.086-1.294c0.283-0.035,1.575-0.206,2.11-0.531c0.513-0.31,1.08-0.848,1.145-1.479
			c0.064-0.618-0.375-1.207-1.022-1.208c-0.899-0.002-1.826,1.328-2.073,2.091c-0.013,0.042-0.104,0.479-0.165,0.798
			c-0.003-0.189-0.01-0.384-0.009-0.565c0.001-0.68,0.044-1.302,0.087-1.852c0.027-0.313,0.057-0.596,0.088-0.859
			c0.26-0.179,1.299-0.913,1.619-1.437c0.312-0.512,0.567-1.25,0.334-1.84c-0.228-0.578-0.889-0.899-1.464-0.602
			c-0.798,0.413-1.008,2.02-0.876,2.811c0.011,0.068,0.313,1.118,0.327,1.108c0,0,0.013-0.009,0.016-0.011
			c-0.035,0.253-0.07,0.526-0.102,0.824c-0.055,0.551-0.111,1.174-0.127,1.856c-0.018,0.682-0.018,1.423,0.053,2.204
			c0.069,0.782,0.182,1.602,0.408,2.432c0.003,0.009,0.007,0.019,0.009,0.028c-0.141-0.222-0.558-0.83-0.595-0.873
			c-0.525-0.607-1.896-1.471-2.723-1.12c-0.596,0.253-0.77,0.967-0.471,1.511C392.902,240.955,393.634,241.23,394.227,241.316z"/>
		<path style="fill:#263238;" d="M409.637,237.094c0.014,0.009,0.287-1.048,0.296-1.117c0.111-0.795-0.143-2.396-0.952-2.786
			c-0.583-0.282-1.235,0.057-1.447,0.641c-0.217,0.596,0.058,1.327,0.384,1.831C408.301,236.253,409.636,237.094,409.637,237.094z"
			/>
	</g>
	<g>
		<path style="fill:#263238;" d="M76.651,356.982c0.645,0.282,2.222,0.246,2.224,0.246c0.016,0-0.339-1.033-0.369-1.095
			c-0.346-0.724-1.44-1.92-2.331-1.799c-0.641,0.087-0.998,0.729-0.853,1.333C75.469,356.283,76.102,356.741,76.651,356.982z"/>
		<path style="fill:#263238;" d="M77.196,361.55c0.669,0.098,2.077-0.311,2.189-0.344c0.222,0.788,0.514,1.579,0.854,2.362
			c0.194,0.448,0.403,0.894,0.618,1.338c-0.128-0.188-0.245-0.355-0.263-0.377c-0.525-0.607-1.896-1.471-2.723-1.12
			c-0.596,0.253-0.77,0.966-0.471,1.511c0.305,0.556,1.037,0.831,1.63,0.917c0.602,0.088,1.809-0.236,2.127-0.326
			c0.084,0.169,0.167,0.34,0.252,0.509c0.408,0.812,0.818,1.62,1.196,2.425c0.133,0.284,0.254,0.568,0.376,0.852
			c-0.114-0.167-0.212-0.307-0.229-0.326c-0.525-0.607-1.896-1.471-2.723-1.12c-0.596,0.253-0.771,0.966-0.471,1.511
			c0.306,0.556,1.037,0.831,1.63,0.917c0.574,0.084,1.691-0.205,2.07-0.31c0.116,0.295,0.233,0.589,0.333,0.88
			c0.063,0.2,0.138,0.388,0.19,0.592c0.056,0.201,0.112,0.401,0.167,0.598c0.092,0.384,0.189,0.78,0.27,1.156
			c0.058,0.262,0.108,0.512,0.16,0.764c-0.13-0.284-0.395-0.834-0.422-0.878c-0.427-0.679-1.651-1.741-2.522-1.519
			c-0.627,0.16-0.908,0.839-0.694,1.422c0.218,0.596,0.899,0.978,1.472,1.154c0.631,0.193,2.028,0.017,2.203-0.007
			c0.084,0.418,0.161,0.824,0.228,1.209c0.15,0.85,0.263,1.612,0.349,2.256h0.589c-0.103-0.667-0.237-1.462-0.415-2.354
			c-0.083-0.424-0.181-0.876-0.285-1.339c0.105-0.042,0.701-0.283,1.229-0.578c0.46,0.498,1.639,1.081,1.791,1.155
			c-0.16,0.395-0.32,0.777-0.477,1.135c-0.326,0.75-0.159,0.261-0.432,0.827l0.622-0.098c0.235-0.522,0.031,0.136,0.3-0.522
			c0.165-0.4,0.333-0.831,0.501-1.274c0.169,0.035,1.552,0.316,2.197,0.171c0.585-0.132,1.293-0.463,1.555-1.041
			c0.256-0.566,0.027-1.264-0.587-1.47c-0.852-0.286-2.152,0.681-2.628,1.327c-0.028,0.038-0.287,0.485-0.446,0.77
			c0.068-0.182,0.135-0.357,0.203-0.545c0.136-0.371,0.261-0.744,0.396-1.146c0.059-0.196,0.118-0.395,0.178-0.595
			c0.064-0.197,0.106-0.414,0.16-0.622c0.116-0.487,0.209-0.985,0.293-1.489c0.325,0.118,1.484,0.522,2.085,0.479
			c0.598-0.042,1.348-0.262,1.694-0.793c0.339-0.52,0.218-1.245-0.357-1.542c-0.799-0.412-2.231,0.348-2.799,0.914
			c-0.035,0.035-0.398,0.487-0.592,0.74c0.048-0.304,0.097-0.606,0.135-0.915c0.111-0.891,0.195-1.796,0.283-2.699
			c0.027-0.277,0.057-0.552,0.086-0.827c0.115,0.043,1.483,0.552,2.156,0.505c0.598-0.042,1.348-0.262,1.694-0.793
			c0.339-0.52,0.218-1.245-0.357-1.542c-0.799-0.412-2.231,0.347-2.799,0.913c-0.043,0.043-0.564,0.694-0.688,0.866
			c0.064-0.607,0.134-1.211,0.227-1.804c0.127-0.818,0.297-1.614,0.518-2.373c0.053,0.02,1.479,0.558,2.168,0.51
			c0.598-0.042,1.348-0.262,1.694-0.793c0.339-0.521,0.218-1.245-0.357-1.542c-0.799-0.412-2.23,0.347-2.799,0.914
			c-0.044,0.044-0.604,0.745-0.697,0.88c0.013-0.045,0.022-0.093,0.036-0.138c0.247-0.807,0.587-1.558,0.94-2.246
			c0.204-0.4,0.422-0.771,0.642-1.127c0.255,0.127,1.428,0.697,2.053,0.722c0.599,0.024,1.368-0.112,1.771-0.602
			c0.394-0.48,0.354-1.214-0.186-1.572c-0.749-0.497-2.255,0.1-2.883,0.601c-0.034,0.027-0.35,0.342-0.577,0.575
			c0.102-0.159,0.204-0.325,0.304-0.476c0.376-0.566,0.755-1.061,1.094-1.497c0.195-0.246,0.376-0.465,0.548-0.668
			c0.315-0.005,1.587-0.044,2.143-0.305c0.542-0.255,1.163-0.73,1.294-1.351c0.129-0.608-0.246-1.24-0.889-1.309
			c-0.894-0.096-1.955,1.128-2.282,1.861c-0.028,0.064-0.355,1.105-0.339,1.105c0,0,0.015,0,0.019,0
			c-0.169,0.192-0.348,0.4-0.539,0.631c-0.35,0.429-0.741,0.918-1.13,1.478c-0.391,0.559-0.8,1.177-1.172,1.867
			c-0.374,0.691-0.732,1.437-1.001,2.253c-0.003,0.009-0.005,0.019-0.008,0.028c0.005-0.263-0.007-1-0.014-1.056
			c-0.103-0.796-0.77-2.273-1.654-2.437c-0.637-0.117-1.176,0.381-1.227,1c-0.052,0.632,0.407,1.265,0.854,1.665
			c0.504,0.45,1.904,0.886,2.015,0.921c-0.249,0.78-0.442,1.6-0.591,2.441c-0.086,0.481-0.157,0.968-0.223,1.457
			c-0.003-0.228-0.008-0.431-0.012-0.46c-0.103-0.796-0.77-2.273-1.654-2.436c-0.637-0.118-1.176,0.381-1.227,1
			c-0.052,0.632,0.407,1.265,0.854,1.664c0.454,0.405,1.639,0.801,1.954,0.901c-0.023,0.188-0.048,0.375-0.071,0.563
			c-0.108,0.902-0.211,1.802-0.34,2.682c-0.045,0.31-0.101,0.614-0.156,0.918c-0.003-0.202-0.008-0.373-0.011-0.398
			c-0.103-0.796-0.77-2.273-1.654-2.436c-0.637-0.118-1.176,0.381-1.227,1.001c-0.052,0.632,0.407,1.265,0.854,1.664
			c0.433,0.387,1.524,0.762,1.898,0.883c-0.065,0.31-0.131,0.62-0.208,0.917c-0.058,0.202-0.099,0.4-0.168,0.599
			c-0.064,0.199-0.128,0.396-0.191,0.591c-0.135,0.371-0.272,0.755-0.413,1.113c-0.096,0.25-0.192,0.487-0.288,0.725
			c0.049-0.308,0.131-0.914,0.132-0.965c0.012-0.533-0.177-1.4-0.554-2.009c0.002-0.079-0.002-0.157-0.015-0.235
			c-0.099-0.613-0.675-1.069-1.3-0.902c-0.868,0.231-1.419,1.755-1.46,2.557c-0.003,0.047,0.028,0.563,0.053,0.888
			c-0.044-0.189-0.084-0.373-0.131-0.567c-0.091-0.384-0.193-0.765-0.302-1.175c-0.059-0.196-0.119-0.394-0.18-0.594
			c-0.056-0.199-0.14-0.403-0.21-0.607c-0.172-0.47-0.369-0.937-0.577-1.404c0.336-0.081,1.526-0.384,2.003-0.75
			c0.476-0.365,0.98-0.962,0.975-1.596c-0.005-0.621-0.505-1.159-1.148-1.089c-0.894,0.097-1.669,1.52-1.831,2.306
			c-0.01,0.049-0.063,0.626-0.086,0.944c-0.128-0.279-0.254-0.559-0.392-0.838c-0.399-0.804-0.828-1.606-1.253-2.407
			c-0.13-0.246-0.257-0.492-0.385-0.737c0.12-0.028,1.542-0.357,2.077-0.768c0.475-0.365,0.98-0.962,0.975-1.596
			c-0.004-0.621-0.505-1.159-1.149-1.089c-0.893,0.097-1.669,1.52-1.831,2.306c-0.012,0.059-0.087,0.889-0.096,1.102
			c-0.281-0.542-0.557-1.084-0.807-1.63c-0.346-0.752-0.643-1.51-0.877-2.265c0.056-0.013,1.541-0.35,2.089-0.771
			c0.476-0.365,0.98-0.962,0.975-1.596c-0.004-0.621-0.505-1.159-1.149-1.089c-0.894,0.097-1.669,1.52-1.831,2.306
			c-0.013,0.062-0.093,0.955-0.096,1.118c-0.014-0.045-0.033-0.09-0.046-0.135c-0.24-0.809-0.37-1.624-0.455-2.392
			c-0.05-0.446-0.073-0.876-0.086-1.294c0.283-0.035,1.575-0.206,2.11-0.53c0.513-0.31,1.08-0.848,1.145-1.479
			c0.064-0.618-0.375-1.207-1.022-1.208c-0.899-0.002-1.826,1.328-2.073,2.091c-0.013,0.042-0.104,0.479-0.165,0.798
			c-0.003-0.189-0.01-0.384-0.009-0.565c0.001-0.68,0.044-1.302,0.087-1.852c0.027-0.313,0.057-0.596,0.088-0.86
			c0.26-0.179,1.299-0.912,1.619-1.437c0.312-0.512,0.567-1.25,0.334-1.84c-0.228-0.578-0.889-0.899-1.464-0.602
			c-0.798,0.413-1.008,2.02-0.876,2.811c0.011,0.068,0.313,1.118,0.327,1.108c0,0,0.013-0.009,0.016-0.011
			c-0.035,0.253-0.07,0.526-0.102,0.824c-0.055,0.551-0.111,1.174-0.127,1.856c-0.018,0.682-0.018,1.423,0.052,2.204
			c0.07,0.782,0.183,1.602,0.408,2.432c0.003,0.009,0.006,0.019,0.009,0.028c-0.141-0.222-0.558-0.83-0.595-0.873
			c-0.525-0.607-1.896-1.471-2.723-1.12c-0.596,0.253-0.771,0.967-0.471,1.511C75.872,361.189,76.603,361.464,77.196,361.55z"/>
		<path style="fill:#263238;" d="M92.606,357.328c0.014,0.009,0.287-1.048,0.297-1.117c0.111-0.795-0.143-2.396-0.952-2.787
			c-0.583-0.281-1.235,0.057-1.447,0.641c-0.217,0.596,0.058,1.328,0.384,1.831C91.27,356.487,92.605,357.328,92.606,357.328z"/>
	</g>
</g>
<g id="Character">
	<g>
		<g>
			<path style="fill:#263238;stroke:#263238;stroke-linecap:round;stroke-linejoin:round;stroke-miterlimit:10;" d="
				M214.171,169.284c0,0,13.632,19.049,15.666,21.048c2.035,1.999,7.608,5.655,9.787,6.742c2.179,1.087,20.541,9.224,20.541,9.224
				s6.993,5.267,7.38,4.652c0.388-0.615-1.099-4.847-1.099-4.847l5.203-0.301c0,0,5.696,1.871,5.727,0.459
				c0.031-1.413-3.637-2.866-3.637-2.866s-6.106-2.13-10.776-3.355c-4.671-1.225-7.913-3.126-7.913-3.126
				s-11.548-9.858-13.468-11.355c-1.921-1.497-6.211-4.918-6.211-4.918l-13.282-19.832L214.171,169.284z"/>
			<path style="fill:#263238;stroke:#263238;stroke-linecap:round;stroke-linejoin:round;stroke-miterlimit:10;" d="
				M173.966,216.704l32.233,18.171c0,0-7.456,8.192-9,12.232c-1.544,4.04-2.78,14.863-2.78,14.863s-12.413,18.101-13.797,20.523
				c-1.384,2.422,0.834,3.677,2.824,3.928c1.99,0.252,7.594,2.495,7.594,2.495s11.414,4.617,14.034,4.55
				c2.621-0.067,5.553-1.083,4.452-2.064c-1.101-0.98-5.589-2.95-6.69-3.93c-1.101-0.98-3.724-10.226-3.844-12.307
				c-0.12-2.081,5.802-12.385,5.802-12.385s10.383-14.654,10.566-15.398c0.183-0.744,4.204-7.806,4.859-11.117
				c0.655-3.311-0.528-6.206-0.528-6.206s-20.947-17.215-22.981-19.214c-2.035-1.999-12.909-6.562-12.909-6.562L173.966,216.704z"/>
		</g>
		<path style="fill:#263238;stroke:#263238;stroke-linecap:round;stroke-linejoin:round;stroke-miterlimit:10;" d="M273.741,203.397
			c0,0-6.106-2.13-10.776-3.355c-0.876-0.23-1.703-0.484-2.467-0.744l-3.337,5.668c1.811,0.805,3.005,1.334,3.005,1.334
			s6.993,5.267,7.38,4.652c0.388-0.615-1.099-4.846-1.099-4.846l5.203-0.301c0,0,5.696,1.871,5.727,0.459
			C277.408,204.85,273.741,203.397,273.741,203.397z"/>
		<g>
			<path style="fill:#FFFFFF;stroke:#263238;stroke-linecap:round;stroke-linejoin:round;stroke-miterlimit:10;" d="
				M244.938,142.326c0,0-1.415,2.774-2.694,3.745s-2.416,1.365-2.628,2.231c-0.213,0.866,0.27,2.392-0.261,3.057
				c-0.531,0.665-2.922,0.935-2.922,0.935s-0.99,1.042-3.088,2.608c-2.098,1.566-4.531,2.254-5.385,1.493
				c-0.854-0.76-9.877-14.113-9.877-14.113l3.732-6.978c0,0,3.029-2.867,7.294-3.289c4.265-0.422,11.344,3.152,13.139,5.061
				C244.044,138.986,244.938,142.326,244.938,142.326z"/>
			<path style="fill:#263238;stroke:#263238;stroke-linecap:round;stroke-linejoin:round;stroke-miterlimit:10;" d="
				M234.171,138.231c0,0-3.186,1.007-3.539,0.707c-0.352-0.299-2.087-0.001-2.296,0.331c-0.209,0.332-2.174,2.959-2.174,2.959
				s-1.419,1.27-3.493-0.346c-2.074-1.617-2.721-2.798-2.614-3.581c0.107-0.783,1.483-5.173,6.305-6.077
				C231.182,131.321,233.61,136.176,234.171,138.231z"/>
			<path style="fill:none;stroke:#263238;stroke-linecap:round;stroke-linejoin:round;stroke-miterlimit:10;" d="M234.102,152.568
				c0,0-0.906-0.648-0.671-2.124"/>
			<path style="fill:none;stroke:#263238;stroke-linecap:round;stroke-linejoin:round;stroke-miterlimit:10;" d="M240.886,146.098
				c0,0,0.251-2.238-1.795-2.059"/>
			<path d="M239.274,147.588c-0.404,0.468-0.878,0.721-1.059,0.565c-0.18-0.156,0.001-0.661,0.406-1.129
				c0.404-0.468,0.878-0.721,1.059-0.565C239.86,146.615,239.678,147.121,239.274,147.588z"/>
			<path style="fill:#FFFFFF;stroke:#263238;stroke-linecap:round;stroke-linejoin:round;stroke-miterlimit:10;" d="
				M231.161,139.863c0,0-0.011-2.451-1.955-2.01c-1.944,0.441-3.748,3.303-2.818,5c0.93,1.697,3.417,0.043,3.417,0.043"/>
			<polygon style="fill:#263238;stroke:#263238;stroke-linecap:round;stroke-linejoin:round;stroke-miterlimit:10;" points="
				222.799,136.035 223.668,150.691 225.729,153.768 225.007,136.761 			"/>
			<g>
				<path style="fill:#263238;stroke:#263238;stroke-linecap:round;stroke-linejoin:round;stroke-miterlimit:10;" d="
					M220.026,131.622c0,0-1.127,2.845-0.055,3.964c1.072,1.12,3.958,1.828,5.036,1.175c1.078-0.653,3.176-2.219,5.037-1.823
					c1.861,0.396,3.391,4.137,5.888,4.934c2.497,0.797,7.186,1.641,7.186,1.641l9.009,6.679c0,0-1.858-6.392-3.099-10.063
					c-1.241-3.671-2.999-10.222-8.97-14.319c-5.971-4.097-8.94-3.969-10.419-2.68c-1.479,1.289-4.878,1.924-6.411,4.179
					C221.696,127.564,219.962,130.137,220.026,131.622z"/>
				<polygon style="fill:#92E3A9;stroke:#263238;stroke-linecap:round;stroke-linejoin:round;stroke-miterlimit:10;" points="
					237.903,128.754 238.786,133.486 247.097,139.189 247.394,135.897 240.237,132.777 				"/>
				<polyline style="fill:none;stroke:#92E3A9;stroke-width:0.5;stroke-miterlimit:10;" points="248.658,140.637 249.001,143.405 
					237.026,134.928 235.988,136.206 237.741,140.172 				"/>
				<polygon style="fill:#92E3A9;" points="233.577,128.501 230.582,124.913 231.109,128.492 230.095,130.714 232.157,131.859 				
					"/>
				<polygon style="fill:#92E3A9;" points="224.305,125.672 225.878,127.591 222.777,131.899 222.845,133.875 221.576,130.369 				
					"/>
				<path style="fill:#92E3A9;" d="M238.012,123.797l2.438,2.387l1.569,3.154l3.107,1.572c0,0-1.848-2.711-2.987-3.97
					C241,125.681,238.012,123.797,238.012,123.797z"/>
				<path style="fill:#92E3A9;" d="M232.413,121.273l1.385,2.342l-2.594-1.404l-0.696-0.98
					C230.507,121.231,231.417,120.645,232.413,121.273z"/>
			</g>
		</g>
		<g>
			<path style="fill:#92E3A9;stroke:#263238;stroke-linecap:round;stroke-linejoin:round;stroke-miterlimit:10;" d="M220.91,145.993
				l15.439,20.282l29.414,21.815c0,0,7.363,3.642,8.087,4.432c0.724,0.789,5.785,5.09,6.149,6.097
				c0.365,1.007-0.053,0.966-1.266,0.423c-1.213-0.542-4.821-2.04-5.197-2.499c-0.376-0.459-0.908,3.202-2.204,3.496
				c-1.295,0.294-4.163,0.263-5.187-0.05c-1.024-0.313-3.411-6.037-4.641-7.256c-1.23-1.219-1.924-1.879-1.924-1.879l-30.496-8.232
				l-12.411-7.871c0,0-11.43,9.201-12.714,11.503c-8.779,15.742-11.094,12.506-11.094,12.506l-30.685-12.792
				c0,0-2.721-6.373,26.204-31.002C203.358,142.216,213.083,138.506,220.91,145.993z"/>
			<path style="fill:#FFFFFF;stroke:#263238;stroke-linecap:round;stroke-linejoin:round;stroke-miterlimit:10;" d="M227.723,181.76
				l1.36,0.862l14.567,3.932l10.626-6.983l-4.492-3.331C244.669,177.508,235.559,179.792,227.723,181.76z"/>
			<path style="fill:#FFFFFF;stroke:#263238;stroke-linecap:round;stroke-linejoin:round;stroke-miterlimit:10;" d="
				M192.097,175.181c-1.934-6.079,6.435-24.399,8.816-29.41c-3.738,2.151-7.881,5.237-12.531,9.196
				c-28.925,24.628-26.204,31.001-26.204,31.001l30.685,12.792c0,0,2.315,3.236,11.094-12.506c0.661-1.185,4.008-4.196,7.103-6.841
				C202.577,179.602,193.287,178.922,192.097,175.181z"/>
			<path style="fill:#263238;stroke:#263238;stroke-linecap:round;stroke-linejoin:round;stroke-miterlimit:10;" d="
				M223.331,147.204c0,0-9.082-7.568-13.017-7.871c-3.935-0.303-19.374-0.605-23.309-0.303c-3.935,0.303-15.439,5.752-19.98,13.32
				c-4.541,7.568-5.146,14.228-2.725,17.558c2.422,3.33,6.054,2.422,6.054,2.422l18.163,24.52c0,0,2.029,3.216,4.345,1.911
				c2.315-1.305,1.71-0.397,1.71-0.397l-13.017-33.905c0,0,11.201-14.833,19.98-19.98
				C210.314,139.333,222.12,145.388,223.331,147.204z"/>
			<g>
				<polyline style="fill:none;stroke:#263238;stroke-linecap:round;stroke-linejoin:round;stroke-miterlimit:10;" points="
					209.993,167.861 216.766,174.906 204.882,168.748 				"/>
			</g>
			<path style="fill:#263238;stroke:#263238;stroke-linecap:round;stroke-linejoin:round;stroke-miterlimit:10;" d="
				M273.535,196.543c0.377,0.459,3.985,1.957,5.197,2.499c1.212,0.542,1.63,0.584,1.266-0.423c-0.365-1.007-5.426-5.308-6.149-6.097
				c-0.724-0.789-8.087-4.432-8.087-4.432l-2.197-1.668l-3.336,5.06c0.319,0.31,0.742,0.725,1.273,1.251
				c1.23,1.219,3.617,6.943,4.641,7.256c1.024,0.313,3.892,0.344,5.187,0.05C272.627,199.745,273.159,196.084,273.535,196.543z"/>
			<path style="fill:#FFFFFF;stroke:#263238;stroke-linecap:round;stroke-linejoin:round;stroke-miterlimit:10;" d="M271.061,194.04
				c0.251,1.109-0.328,2.185-1.294,2.404c-0.966,0.219-1.953-0.502-2.204-1.611c-0.251-1.109,0.328-2.185,1.294-2.405
				C269.823,192.209,270.809,192.93,271.061,194.04z"/>
		</g>
		<polygon style="fill:#263238;stroke:#263238;stroke-linecap:round;stroke-linejoin:round;stroke-miterlimit:10;" points="
			250.258,230.833 253.274,233.699 256.421,230.619 254.173,227.875 		"/>
		<g>
			<g>
				<polyline style="fill:none;stroke:#263238;stroke-width:0.5;stroke-miterlimit:10;" points="286.049,250.349 292.977,274.584 
					290.506,249.769 				"/>
				<polyline style="fill:none;stroke:#263238;stroke-width:0.5;stroke-miterlimit:10;" points="278.9,253.676 292.977,274.584 
					282.958,251.747 				"/>
				<polyline style="fill:none;stroke:#263238;stroke-width:0.5;stroke-miterlimit:10;" points="273.128,259.049 292.977,274.584 
					276.392,255.961 				"/>
				<polyline style="fill:none;stroke:#263238;stroke-width:0.5;stroke-miterlimit:10;" points="269.299,265.944 292.977,274.584 
					271.449,261.998 				"/>
				<polyline style="fill:none;stroke:#263238;stroke-width:0.5;stroke-miterlimit:10;" points="267.788,273.684 292.977,274.584 
					268.613,269.266 				"/>
				<polyline style="fill:none;stroke:#263238;stroke-width:0.5;stroke-miterlimit:10;" points="268.742,281.512 292.977,274.584 
					268.162,277.056 				"/>
				<polyline style="fill:none;stroke:#263238;stroke-width:0.5;stroke-miterlimit:10;" points="272.069,288.662 292.977,274.584 
					270.141,284.603 				"/>
				<polyline style="fill:none;stroke:#263238;stroke-width:0.5;stroke-miterlimit:10;" points="277.443,294.434 292.977,274.584 
					274.354,291.17 				"/>
				<polyline style="fill:none;stroke:#263238;stroke-width:0.5;stroke-miterlimit:10;" points="284.337,298.263 292.977,274.584 
					280.391,296.113 				"/>
				<polyline style="fill:none;stroke:#263238;stroke-width:0.5;stroke-miterlimit:10;" points="292.077,299.774 292.977,274.584 
					287.66,298.948 				"/>
				<polyline style="fill:none;stroke:#263238;stroke-width:0.5;stroke-miterlimit:10;" points="299.905,298.819 292.977,274.584 
					295.449,299.399 				"/>
				<polyline style="fill:none;stroke:#263238;stroke-width:0.5;stroke-miterlimit:10;" points="307.055,295.492 292.977,274.584 
					302.997,297.421 				"/>
				<polyline style="fill:none;stroke:#263238;stroke-width:0.5;stroke-miterlimit:10;" points="312.827,290.118 292.977,274.584 
					309.563,293.207 				"/>
				<polyline style="fill:none;stroke:#263238;stroke-width:0.5;stroke-miterlimit:10;" points="316.656,283.224 292.977,274.584 
					314.506,287.17 				"/>
				<polyline style="fill:none;stroke:#263238;stroke-width:0.5;stroke-miterlimit:10;" points="318.167,275.484 292.977,274.584 
					317.342,279.901 				"/>
				<polyline style="fill:none;stroke:#263238;stroke-width:0.5;stroke-miterlimit:10;" points="317.213,267.656 292.977,274.584 
					317.793,272.112 				"/>
				<polyline style="fill:none;stroke:#263238;stroke-width:0.5;stroke-miterlimit:10;" points="313.885,260.506 292.977,274.584 
					315.814,264.565 				"/>
				<polyline style="fill:none;stroke:#263238;stroke-width:0.5;stroke-miterlimit:10;" points="308.512,254.734 292.977,274.584 
					311.6,257.998 				"/>
				<polyline style="fill:none;stroke:#263238;stroke-width:0.5;stroke-miterlimit:10;" points="301.618,250.905 292.977,274.584 
					305.564,253.055 				"/>
				<polyline style="fill:none;stroke:#263238;stroke-width:0.5;stroke-miterlimit:10;" points="293.878,249.394 292.977,274.584 
					298.295,250.219 				"/>
				<g>
					<path style="fill:#263238;stroke:#263238;stroke-miterlimit:10;" d="M287.04,245.915c16.171-3.666,32.252,6.471,35.918,22.642
						c3.666,16.171-6.471,32.252-22.642,35.918c-16.171,3.666-32.252-6.471-35.918-22.642
						C260.732,265.662,270.869,249.581,287.04,245.915z M299.12,299.201c13.258-3.006,21.57-16.191,18.564-29.449
						c-3.006-13.258-16.19-21.57-29.449-18.564c-13.258,3.006-21.57,16.191-18.564,29.449
						C272.677,293.896,285.862,302.207,299.12,299.201z"/>
				</g>
			</g>
			<g>
				<polyline style="fill:none;stroke:#263238;stroke-width:0.5;stroke-miterlimit:10;" points="170.799,290.379 177.727,314.614 
					175.255,289.798 				"/>
				<polyline style="fill:none;stroke:#263238;stroke-width:0.5;stroke-miterlimit:10;" points="163.649,293.706 177.727,314.614 
					167.708,291.777 				"/>
				<polyline style="fill:none;stroke:#263238;stroke-width:0.5;stroke-miterlimit:10;" points="157.878,299.079 177.727,314.614 
					161.141,295.991 				"/>
				<polyline style="fill:none;stroke:#263238;stroke-width:0.5;stroke-miterlimit:10;" points="154.049,305.974 177.727,314.614 
					156.199,302.027 				"/>
				<polyline style="fill:none;stroke:#263238;stroke-width:0.5;stroke-miterlimit:10;" points="152.537,313.714 177.727,314.614 
					153.363,309.296 				"/>
				<polyline style="fill:none;stroke:#263238;stroke-width:0.5;stroke-miterlimit:10;" points="153.492,321.542 177.727,314.614 
					152.912,317.086 				"/>
				<polyline style="fill:none;stroke:#263238;stroke-width:0.5;stroke-miterlimit:10;" points="156.819,328.692 177.727,314.614 
					154.891,324.633 				"/>
				<polyline style="fill:none;stroke:#263238;stroke-width:0.5;stroke-miterlimit:10;" points="162.193,334.464 177.727,314.614 
					159.104,331.199 				"/>
				<polyline style="fill:none;stroke:#263238;stroke-width:0.5;stroke-miterlimit:10;" points="169.087,338.293 177.727,314.614 
					165.141,336.143 				"/>
				<polyline style="fill:none;stroke:#263238;stroke-width:0.5;stroke-miterlimit:10;" points="176.827,339.803 177.727,314.614 
					172.41,338.978 				"/>
				<polyline style="fill:none;stroke:#263238;stroke-width:0.5;stroke-miterlimit:10;" points="184.655,338.849 177.727,314.614 
					180.199,339.429 				"/>
				<polyline style="fill:none;stroke:#263238;stroke-width:0.5;stroke-miterlimit:10;" points="191.805,335.522 177.727,314.614 
					187.747,337.451 				"/>
				<polyline style="fill:none;stroke:#263238;stroke-width:0.5;stroke-miterlimit:10;" points="197.577,330.148 177.727,314.614 
					194.313,333.237 				"/>
				<polyline style="fill:none;stroke:#263238;stroke-width:0.5;stroke-miterlimit:10;" points="201.406,323.254 177.727,314.614 
					199.256,327.2 				"/>
				<polyline style="fill:none;stroke:#263238;stroke-width:0.5;stroke-miterlimit:10;" points="202.917,315.514 177.727,314.614 
					202.092,319.931 				"/>
				<polyline style="fill:none;stroke:#263238;stroke-width:0.5;stroke-miterlimit:10;" points="201.962,307.686 177.727,314.614 
					202.543,312.142 				"/>
				<polyline style="fill:none;stroke:#263238;stroke-width:0.5;stroke-miterlimit:10;" points="198.635,300.536 177.727,314.614 
					200.564,304.595 				"/>
				<polyline style="fill:none;stroke:#263238;stroke-width:0.5;stroke-miterlimit:10;" points="193.262,294.764 177.727,314.614 
					196.35,298.028 				"/>
				<polyline style="fill:none;stroke:#263238;stroke-width:0.5;stroke-miterlimit:10;" points="186.367,290.935 177.727,314.614 
					190.314,293.085 				"/>
				<polyline style="fill:none;stroke:#263238;stroke-width:0.5;stroke-miterlimit:10;" points="178.628,289.424 177.727,314.614 
					183.045,290.249 				"/>
				<g>
					<path style="fill:#263238;stroke:#263238;stroke-miterlimit:10;" d="M171.79,285.945c16.171-3.666,32.252,6.471,35.918,22.642
						c3.666,16.171-6.471,32.252-22.642,35.918c-16.171,3.666-32.252-6.471-35.918-22.642
						C145.482,305.692,155.619,289.611,171.79,285.945z M183.87,339.231c13.258-3.006,21.57-16.191,18.564-29.449
						c-3.006-13.258-16.191-21.57-29.449-18.564c-13.258,3.006-21.57,16.191-18.564,29.449
						C157.427,333.926,170.612,342.237,183.87,339.231z"/>
				</g>
			</g>
			<g>
				<path style="fill:none;stroke:#263238;stroke-linecap:round;stroke-linejoin:round;stroke-miterlimit:10;" d="M268.799,202.271
					c0,0,9.668,1.806,11.137,13.664c1.469,11.858-11.349,21.382-17.635,20.543"/>
				<path style="fill:none;stroke:#263238;stroke-linecap:round;stroke-linejoin:round;stroke-miterlimit:10;" d="M268.453,205.999
					c0,0,13.873,4.344,13.889,16.706c0.016,12.362-10.395,24.823-10.395,24.823"/>
				<path style="fill:#263238;stroke:#263238;stroke-linecap:round;stroke-linejoin:round;stroke-miterlimit:10;" d="
					M252.351,231.169c2.152-1.356,13.242-20.071,13.911-20.946c0.429-0.561,1.955-4.936,2.995-8.006l3.488-0.407
					c0,0,1.495-1.062,3.252-1.605c1.757-0.543,3.808-0.429,3.808-0.429s-1.813-1.614-3.57-1.071
					c-1.757,0.543-3.346,1.193-3.346,1.193l-1.306-1.295l-1.313,0.587l-2.357-0.189c0,0-4.314,10.959-8.531,15.965
					c-4.217,5.006-12.4,12.937-11.307,14.569C249.169,231.168,250.2,232.525,252.351,231.169z"/>
				<path style="fill:#263238;stroke:#263238;stroke-linecap:round;stroke-linejoin:round;stroke-miterlimit:10;" d="
					M293.065,272.115l-9.925-10.441l-17.938-21.885l-9.518-10.533l-77.589,74.771c0,0-1.018,1.799-1.038,4.228
					c-0.02,2.428-2.038,6.736-0.689,8.284c1.349,1.548,4.118-0.078,4.118-0.078l2.06-1.608c0,0,10.87-4.888,11.456-5.449
					c0.586-0.561,24.567-18.688,24.567-18.688l40.029-46.72l1.467,0.808c0,0,21.1,20.741,22.253,22.048
					c1.152,1.307,8.207,7.266,8.207,7.266s0.781,2.817,2.532,2.991c1.751,0.173,3.07-1.552,2.43-3.118
					S293.065,272.115,293.065,272.115z M223.132,278.13l-9.159,9.919c0,0-28.045,20.332-29.339,20.911
					c-1.295,0.579-4.765,0.367-4.765,0.367l6.47-7.313l64.083-62.012l1.454,1.382L223.132,278.13z"/>
			</g>
		</g>
		<g>
			<path style="fill:#FFFFFF;stroke:#263238;stroke-linecap:round;stroke-linejoin:round;stroke-miterlimit:10;" d="
				M162.178,185.969c0,0-5.07,6.426-5.292,12.89c-0.222,6.463,5.158,12.331,11.153,15.697c5.995,3.366,41.812,17.691,41.812,17.691
				s-3.835,9.139-2.904,13.99c0.931,4.852,4.793,27.096,4.793,27.096s-1.934,15.289-0.447,16.639
				c1.487,1.35,11.636-0.782,13.722-1.255c2.087-0.473,14.138-0.167,16.654-0.232c2.517-0.064,2.555-3.617,1.301-4.683
				c-1.254-1.066-12.749-4.872-15.272-6.326c-2.523-1.453-4.083-3.125-4.083-3.125s-2.018-4.436-2.504-9.558
				c-0.486-5.121,0.63-19.55,0.874-25.174c0.244-5.624,1.825-15.771,0.207-18.441c-1.618-2.671-29.33-22.418-29.33-22.418
				S168.491,186.516,162.178,185.969z"/>
			<g>
				<path style="fill:#263238;stroke:#263238;stroke-linecap:round;stroke-linejoin:round;stroke-miterlimit:10;" d="
					M192.863,198.761c0,0-24.372-12.244-30.685-12.792c0,0-5.07,6.426-5.292,12.89c-0.222,6.463,5.158,12.331,11.153,15.697
					c3.264,1.833,15.367,6.913,25.719,11.162l12.952-16.906C199.655,203.601,192.863,198.761,192.863,198.761z"/>
				<path style="fill:#FFFFFF;stroke:#263238;stroke-linecap:round;stroke-linejoin:round;stroke-miterlimit:10;" d="
					M163.813,211.283c7.578-1.466,26.273-4.542,42.157-2.825c-5.747-4.205-10.583-7.652-10.583-7.652s-2.394-1.202-5.874-2.87
					c-1.749,0.158-4.352,0.701-8.236,1.936c-8.166,2.598-15.233,6.526-19.324,9.062
					C162.503,209.751,163.132,210.533,163.813,211.283z"/>
			</g>
			<path style="fill:#5C5C5C;stroke:#263238;stroke-linecap:round;stroke-linejoin:round;stroke-miterlimit:10;" d="M227.7,277.477
				c-2.523-1.453-4.083-3.125-4.083-3.125l-2.84,3.85c0,0-3.05,0.691-5.639,0.435c-1.183-0.117-2.672-0.199-3.943-0.254
				c-0.431,4.585-0.82,10.753,0.1,11.589c1.487,1.35,11.636-0.782,13.723-1.255c2.087-0.473,14.138-0.167,16.654-0.232
				c2.517-0.064,2.555-3.617,1.301-4.683C241.718,282.737,230.223,278.93,227.7,277.477z"/>
		</g>
		<g>
			<circle style="fill:#A8A8A8;" cx="291.661" cy="314.912" r="3.095"/>
			<circle style="fill:#A8A8A8;" cx="280.968" cy="310.756" r="1.061"/>
			<circle style="fill:#A8A8A8;" cx="279.271" cy="319.665" r="1.909"/>
		</g>
	</g>
</g>
</svg>
